<svg width="1280" height="720" viewBox="0 0 1280 720" fill="none" xmlns="http://www.w3.org/2000/svg">
<g clip-path="url(#clip0_1_2)">
<rect width="1280" height="720" fill="black"/>
<rect width="1280" height="720" fill="url(#paint0_radial_1_2)"/>
<rect x="-393.726" y="330.678" width="10" height="1200" transform="rotate(-45 -393.726 330.678)" fill="black"/>
<rect x="-382.412" y="319.365" width="10" height="1200" transform="rotate(-45 -382.412 319.365)" fill="black"/>
<rect x="-371.099" y="308.051" width="10" height="1200" transform="rotate(-45 -371.099 308.051)" fill="black"/>
<rect x="-359.785" y="296.737" width="10" height="1200" transform="rotate(-45 -359.785 296.737)" fill="black"/>
<rect x="-348.471" y="285.423" width="10" height="1200" transform="rotate(-45 -348.471 285.423)" fill="black"/>
<rect x="-337.157" y="274.11" width="10" height="1200" transform="rotate(-45 -337.157 274.11)" fill="black"/>
<rect x="-325.844" y="262.796" width="10" height="1200" transform="rotate(-45 -325.844 262.796)" fill="black"/>
<rect x="-314.53" y="251.482" width="10" height="1200" transform="rotate(-45 -314.53 251.482)" fill="black"/>
<rect x="-303.216" y="240.169" width="10" height="1200" transform="rotate(-45 -303.216 240.169)" fill="black"/>
<rect x="-291.902" y="228.855" width="10" height="1200" transform="rotate(-45 -291.902 228.855)" fill="black"/>
<rect x="-280.589" y="217.541" width="10" height="1200" transform="rotate(-45 -280.589 217.541)" fill="black"/>
<rect x="-269.275" y="206.227" width="10" height="1200" transform="rotate(-45 -269.275 206.227)" fill="black"/>
<rect x="-257.961" y="194.914" width="10" height="1200" transform="rotate(-45 -257.961 194.914)" fill="black"/>
<rect x="-246.648" y="183.6" width="10" height="1200" transform="rotate(-45 -246.648 183.6)" fill="black"/>
<rect x="-235.334" y="172.286" width="10" height="1200" transform="rotate(-45 -235.334 172.286)" fill="black"/>
<rect x="-224.02" y="160.973" width="10" height="1200" transform="rotate(-45 -224.02 160.973)" fill="black"/>
<rect x="-212.707" y="149.659" width="10" height="1200" transform="rotate(-45 -212.707 149.659)" fill="black"/>
<rect x="-201.393" y="138.345" width="10" height="1200" transform="rotate(-45 -201.393 138.345)" fill="black"/>
<rect x="-190.079" y="127.032" width="10" height="1200" transform="rotate(-45 -190.079 127.032)" fill="black"/>
<rect x="-178.765" y="115.718" width="10" height="1200" transform="rotate(-45 -178.765 115.718)" fill="black"/>
<rect x="-167.452" y="104.404" width="10" height="1200" transform="rotate(-45 -167.452 104.404)" fill="black"/>
<rect x="-156.138" y="93.0904" width="10" height="1200" transform="rotate(-45 -156.138 93.0904)" fill="black"/>
<rect x="-144.824" y="81.7767" width="10" height="1200" transform="rotate(-45 -144.824 81.7767)" fill="black"/>
<rect x="-133.511" y="70.463" width="10" height="1200" transform="rotate(-45 -133.511 70.463)" fill="black"/>
<rect x="-122.197" y="59.1493" width="10" height="1200" transform="rotate(-45 -122.197 59.1493)" fill="black"/>
<rect x="-110.883" y="47.8356" width="10" height="1200" transform="rotate(-45 -110.883 47.8356)" fill="black"/>
<rect x="-99.5695" y="36.5219" width="10" height="1200" transform="rotate(-45 -99.5695 36.5219)" fill="black"/>
<rect x="-88.2557" y="25.2082" width="10" height="1200" transform="rotate(-45 -88.2557 25.2082)" fill="black"/>
<rect x="-76.942" y="13.8945" width="10" height="1200" transform="rotate(-45 -76.942 13.8945)" fill="black"/>
<rect x="-65.6284" y="2.58075" width="10" height="1200" transform="rotate(-45 -65.6284 2.58075)" fill="black"/>
<rect x="-54.3147" y="-8.73297" width="10" height="1200" transform="rotate(-45 -54.3147 -8.73297)" fill="black"/>
<rect x="-43.001" y="-20.0467" width="10" height="1200" transform="rotate(-45 -43.001 -20.0467)" fill="black"/>
<rect x="-31.6873" y="-31.3604" width="10" height="1200" transform="rotate(-45 -31.6873 -31.3604)" fill="black"/>
<rect x="-20.3735" y="-42.6741" width="10" height="1200" transform="rotate(-45 -20.3735 -42.6741)" fill="black"/>
<rect x="-9.05981" y="-53.9878" width="10" height="1200" transform="rotate(-45 -9.05981 -53.9878)" fill="black"/>
<rect x="2.25391" y="-65.3015" width="10" height="1200" transform="rotate(-45 2.25391 -65.3015)" fill="black"/>
<rect x="13.5676" y="-76.6152" width="10" height="1200" transform="rotate(-45 13.5676 -76.6152)" fill="black"/>
<rect x="24.8813" y="-87.9289" width="10" height="1200" transform="rotate(-45 24.8813 -87.9289)" fill="black"/>
<rect x="682" y="-266.537" width="10" height="1200" transform="rotate(-45 682 -266.537)" fill="black"/>
<rect x="693.314" y="-277.851" width="10" height="1200" transform="rotate(-45 693.314 -277.851)" fill="black"/>
<rect x="704.627" y="-289.164" width="10" height="1200" transform="rotate(-45 704.627 -289.164)" fill="black"/>
<rect x="715.941" y="-300.478" width="10" height="1200" transform="rotate(-45 715.941 -300.478)" fill="black"/>
<rect x="727.255" y="-311.792" width="10" height="1200" transform="rotate(-45 727.255 -311.792)" fill="black"/>
<rect x="738.569" y="-323.106" width="10" height="1200" transform="rotate(-45 738.569 -323.106)" fill="black"/>
<rect x="749.882" y="-334.419" width="10" height="1200" transform="rotate(-45 749.882 -334.419)" fill="black"/>
<rect x="761.196" y="-345.733" width="10" height="1200" transform="rotate(-45 761.196 -345.733)" fill="black"/>
<rect x="772.51" y="-357.047" width="10" height="1200" transform="rotate(-45 772.51 -357.047)" fill="black"/>
<rect x="783.823" y="-368.36" width="10" height="1200" transform="rotate(-45 783.823 -368.36)" fill="black"/>
<rect x="795.137" y="-379.674" width="10" height="1200" transform="rotate(-45 795.137 -379.674)" fill="black"/>
<rect x="806.451" y="-390.988" width="10" height="1200" transform="rotate(-45 806.451 -390.988)" fill="black"/>
<rect x="817.765" y="-402.302" width="10" height="1200" transform="rotate(-45 817.765 -402.302)" fill="black"/>
<rect x="829.078" y="-413.615" width="10" height="1200" transform="rotate(-45 829.078 -413.615)" fill="black"/>
<rect x="840.392" y="-424.929" width="10" height="1200" transform="rotate(-45 840.392 -424.929)" fill="black"/>
<g filter="url(#filter0_d_1_2)">
<path d="M955.165 99.0642L953.768 97.6673L959.153 92.2825L956.968 91.132L958.104 89.9961L962.062 91.8668L962.212 92.0166L955.165 99.0642ZM967.568 105.648C966.595 106.621 965.649 107.164 964.731 107.277C963.812 107.39 962.965 107.058 962.188 106.281C961.421 105.514 961.088 104.675 961.188 103.763C961.287 102.851 961.805 101.918 962.739 100.964L964.035 99.6684C965.017 98.6856 965.967 98.1426 966.882 98.0395C967.8 97.9396 968.643 98.2731 969.41 99.04C970.177 99.807 970.51 100.646 970.41 101.558C970.314 102.467 969.798 103.398 968.864 104.352L967.568 105.648ZM967.592 102.83C968.176 102.246 968.519 101.742 968.622 101.317C968.731 100.891 968.617 100.509 968.279 100.171C967.95 99.8424 967.579 99.7264 967.167 99.8231C966.761 99.9198 966.284 100.232 965.736 100.761L964.025 102.472C963.451 103.046 963.102 103.55 962.976 103.985C962.857 104.42 962.97 104.81 963.314 105.155C963.656 105.496 964.036 105.609 964.455 105.493C964.874 105.377 965.362 105.047 965.92 104.502L967.592 102.83ZM973.253 111.332C972.279 112.305 971.334 112.848 970.415 112.961C969.497 113.074 968.649 112.742 967.873 111.965C967.106 111.199 966.772 110.359 966.872 109.447C966.972 108.535 967.489 107.602 968.424 106.648L969.719 105.353C970.702 104.37 971.651 103.827 972.566 103.724C973.485 103.624 974.327 103.958 975.094 104.725C975.861 105.491 976.195 106.331 976.095 107.243C975.998 108.152 975.483 109.083 974.548 110.037L973.253 111.332ZM973.277 108.514C973.86 107.931 974.203 107.427 974.306 107.001C974.416 106.576 974.301 106.194 973.963 105.856C973.634 105.527 973.264 105.411 972.851 105.508C972.445 105.604 971.968 105.917 971.421 106.445L969.709 108.156C969.136 108.73 968.786 109.234 968.661 109.669C968.541 110.104 968.654 110.494 968.999 110.839C969.34 111.181 969.721 111.294 970.14 111.178C970.559 111.062 971.047 110.731 971.604 110.187L973.277 108.514ZM977.149 121.048L975.752 119.651L981.136 114.266L978.952 113.116L980.087 111.98L984.046 113.851L984.196 114L977.149 121.048ZM982.833 126.733L981.436 125.336L986.821 119.951L984.636 118.8L985.772 117.664L989.731 119.535L989.881 119.685L982.833 126.733ZM990.983 134.882L989.586 133.485L994.971 128.1L992.786 126.95L993.922 125.814L997.88 127.685L998.03 127.835L990.983 134.882ZM1000.92 139.001C999.948 139.974 999.002 140.517 998.083 140.63C997.165 140.742 996.318 140.41 995.541 139.634C994.774 138.867 994.44 138.027 994.54 137.115C994.64 136.203 995.157 135.271 996.092 134.317L997.387 133.021C998.37 132.038 999.319 131.495 1000.23 131.392C1001.15 131.292 1002 131.626 1002.76 132.393C1003.53 133.16 1003.86 133.999 1003.76 134.911C1003.67 135.82 1003.15 136.751 1002.22 137.705L1000.92 139.001ZM1000.95 136.182C1001.53 135.599 1001.87 135.095 1001.97 134.67C1002.08 134.244 1001.97 133.862 1001.63 133.524C1001.3 133.195 1000.93 133.079 1000.52 133.176C1000.11 133.273 999.637 133.585 999.089 134.114L997.378 135.825C996.804 136.398 996.455 136.903 996.329 137.338C996.21 137.773 996.322 138.163 996.667 138.508C997.009 138.849 997.389 138.962 997.808 138.846C998.227 138.73 998.715 138.4 999.273 137.855L1000.95 136.182ZM1009.07 147.15C1008.1 148.123 1007.15 148.666 1006.23 148.779C1005.31 148.892 1004.47 148.56 1003.69 147.783C1002.92 147.017 1002.59 146.177 1002.69 145.265C1002.79 144.353 1003.31 143.42 1004.24 142.466L1005.54 141.171C1006.52 140.188 1007.47 139.645 1008.38 139.542C1009.3 139.442 1010.15 139.776 1010.91 140.543C1011.68 141.309 1012.01 142.149 1011.91 143.061C1011.82 143.97 1011.3 144.901 1010.37 145.855L1009.07 147.15ZM1009.09 144.332C1009.68 143.749 1010.02 143.245 1010.12 142.819C1010.23 142.394 1010.12 142.012 1009.78 141.674C1009.45 141.345 1009.08 141.229 1008.67 141.326C1008.26 141.422 1007.79 141.735 1007.24 142.263L1005.53 143.974C1004.95 144.548 1004.6 145.052 1004.48 145.487C1004.36 145.922 1004.47 146.312 1004.82 146.657C1005.16 146.999 1005.54 147.112 1005.96 146.996C1006.38 146.88 1006.86 146.549 1007.42 146.005L1009.09 144.332Z" fill="#033162" fill-opacity="0.7" shape-rendering="crispEdges"/>
</g>
<g filter="url(#filter1_d_1_2)">
<path d="M639.993 -9.93579L638.596 -11.3327L643.981 -16.7175L641.796 -17.868L642.932 -19.0039L646.891 -17.1332L647.041 -16.9834L639.993 -9.93579ZM652.397 -3.35224C651.423 -2.37904 650.478 -1.83606 649.559 -1.72327C648.641 -1.61048 647.793 -1.9424 647.017 -2.71902C646.25 -3.48597 645.916 -4.32543 646.016 -5.2374C646.116 -6.14936 646.633 -7.08227 647.568 -8.03613L648.863 -9.33157C649.846 -10.3144 650.795 -10.8574 651.71 -10.9605C652.629 -11.0604 653.471 -10.7269 654.238 -9.95996C655.005 -9.193 655.339 -8.35354 655.239 -7.44158C655.142 -6.53284 654.626 -5.60154 653.692 -4.64768L652.397 -3.35224ZM652.421 -6.17031C653.004 -6.75358 653.347 -7.2579 653.45 -7.68327C653.56 -8.10864 653.445 -8.4905 653.107 -8.82886C652.778 -9.15756 652.408 -9.27357 651.995 -9.17689C651.589 -9.08022 651.112 -8.76763 650.565 -8.23915L648.853 -6.528C648.28 -5.9544 647.93 -5.45008 647.804 -5.01504C647.685 -4.58001 647.798 -4.19009 648.143 -3.84528C648.484 -3.50369 648.865 -3.39091 649.284 -3.50692C649.703 -3.62293 650.191 -3.95323 650.748 -4.49783L652.421 -6.17031ZM658.081 2.33224C657.108 3.30543 656.162 3.84842 655.244 3.96121C654.325 4.07399 653.478 3.74208 652.701 2.96546C651.934 2.1985 651.601 1.35905 651.7 0.44708C651.8 -0.464885 652.318 -1.3978 653.252 -2.35165L654.548 -3.6471C655.53 -4.62996 656.479 -5.17295 657.395 -5.27606C658.313 -5.37596 659.156 -5.04243 659.923 -4.27548C660.69 -3.50853 661.023 -2.66907 660.923 -1.7571C660.827 -0.848361 660.311 0.0829388 659.376 1.0368L658.081 2.33224ZM658.105 -0.485831C658.688 -1.0691 659.032 -1.57342 659.135 -1.99879C659.244 -2.42416 659.13 -2.80603 658.792 -3.14439C658.463 -3.47308 658.092 -3.58909 657.68 -3.49242C657.274 -3.39574 656.797 -3.08316 656.249 -2.55467L654.538 -0.843528C653.964 -0.269924 653.615 0.234396 653.489 0.669432C653.37 1.10447 653.483 1.49439 653.827 1.8392C654.169 2.18078 654.549 2.29357 654.968 2.17756C655.387 2.06155 655.875 1.73124 656.433 1.18664L658.105 -0.485831ZM661.977 12.0481L660.58 10.6511L665.965 5.26632L663.78 4.11589L664.916 2.97996L668.875 4.85062L669.025 5.00046L661.977 12.0481ZM667.661 17.7325L666.265 16.3356L671.649 10.9508L669.464 9.80036L670.6 8.66443L674.559 10.5351L674.709 10.6849L667.661 17.7325ZM675.811 25.8822L674.414 24.4853L679.799 19.1005L677.614 17.95L678.75 16.8141L682.709 18.6848L682.859 18.8346L675.811 25.8822ZM685.749 30.0006C684.776 30.9737 683.83 31.5167 682.912 31.6295C681.994 31.7423 681.146 31.4104 680.369 30.6338C679.602 29.8668 679.269 29.0274 679.369 28.1154C679.469 27.2034 679.986 26.2705 680.92 25.3167L682.216 24.0212C683.199 23.0384 684.148 22.4954 685.063 22.3922C685.981 22.2924 686.824 22.6259 687.591 23.3928C688.358 24.1598 688.691 24.9992 688.592 25.9112C688.495 26.82 687.979 27.7513 687.045 28.7051L685.749 30.0006ZM685.773 27.1825C686.357 26.5992 686.7 26.0949 686.803 25.6695C686.913 25.2442 686.798 24.8623 686.46 24.5239C686.131 24.1952 685.761 24.0792 685.348 24.1759C684.942 24.2726 684.465 24.5852 683.917 25.1136L682.206 26.8248C681.633 27.3984 681.283 27.9027 681.157 28.3377C681.038 28.7728 681.151 29.1627 681.496 29.5075C681.837 29.8491 682.217 29.9619 682.636 29.8459C683.055 29.7299 683.544 29.3996 684.101 28.855L685.773 27.1825ZM693.899 38.1502C692.926 39.1234 691.98 39.6664 691.062 39.7792C690.143 39.892 689.296 39.5601 688.519 38.7835C687.752 38.0165 687.419 37.177 687.518 36.2651C687.618 35.3531 688.136 34.4202 689.07 33.4663L690.366 32.1709C691.348 31.188 692.297 30.6451 693.213 30.5419C694.131 30.442 694.974 30.7756 695.741 31.5425C696.508 32.3095 696.841 33.1489 696.741 34.0609C696.645 34.9696 696.129 35.9009 695.194 36.8548L693.899 38.1502ZM693.923 35.3322C694.506 34.7489 694.85 34.2446 694.953 33.8192C695.062 33.3938 694.948 33.012 694.61 32.6736C694.281 32.3449 693.91 32.2289 693.498 32.3256C693.092 32.4223 692.615 32.7348 692.067 33.2633L690.356 34.9745C689.782 35.5481 689.433 36.0524 689.307 36.4874C689.188 36.9225 689.301 37.3124 689.645 37.6572C689.987 37.9988 690.367 38.1116 690.786 37.9956C691.205 37.8795 691.693 37.5492 692.251 37.0046L693.923 35.3322Z" fill="#033162" fill-opacity="0.4" shape-rendering="crispEdges"/>
</g>
<g filter="url(#filter2_d_1_2)">
<path d="M806.993 -1.93579L805.596 -3.33274L810.981 -8.71752L808.796 -9.86795L809.932 -11.0039L813.891 -9.13322L814.041 -8.98338L806.993 -1.93579ZM819.397 4.64776C818.423 5.62096 817.478 6.16394 816.559 6.27673C815.641 6.38952 814.793 6.0576 814.017 5.28098C813.25 4.51403 812.916 3.67457 813.016 2.7626C813.116 1.85064 813.633 0.917728 814.568 -0.0361292L815.863 -1.33157C816.846 -2.31443 817.795 -2.85742 818.71 -2.96054C819.629 -3.06044 820.471 -2.72691 821.238 -1.95996C822.005 -1.193 822.339 -0.353545 822.239 0.558421C822.142 1.46716 821.626 2.39846 820.692 3.35232L819.397 4.64776ZM819.421 1.82969C820.004 1.24642 820.347 0.742103 820.45 0.316734C820.56 -0.108635 820.445 -0.490501 820.107 -0.828862C819.778 -1.15756 819.408 -1.27357 818.995 -1.17689C818.589 -1.08022 818.112 -0.767635 817.565 -0.239146L815.853 1.472C815.28 2.0456 814.93 2.54992 814.804 2.98496C814.685 3.41999 814.798 3.80991 815.143 4.15472C815.484 4.49631 815.865 4.60909 816.284 4.49308C816.703 4.37707 817.191 4.04677 817.748 3.50217L819.421 1.82969ZM825.081 10.3322C824.108 11.3054 823.162 11.8484 822.244 11.9612C821.325 12.074 820.478 11.7421 819.701 10.9655C818.934 10.1985 818.601 9.35905 818.7 8.44708C818.8 7.53512 819.318 6.6022 820.252 5.64835L821.548 4.3529C822.53 3.37004 823.479 2.82705 824.395 2.72394C825.313 2.62404 826.156 2.95757 826.923 3.72452C827.69 4.49147 828.023 5.33093 827.923 6.2429C827.827 7.15164 827.311 8.08294 826.376 9.0368L825.081 10.3322ZM825.105 7.51417C825.688 6.9309 826.032 6.42658 826.135 6.00121C826.244 5.57584 826.13 5.19397 825.792 4.85561C825.463 4.52692 825.092 4.41091 824.68 4.50758C824.274 4.60426 823.797 4.91684 823.249 5.44533L821.538 7.15647C820.964 7.73008 820.615 8.2344 820.489 8.66943C820.37 9.10447 820.483 9.49439 820.827 9.8392C821.169 10.1808 821.549 10.2936 821.968 10.1776C822.387 10.0615 822.875 9.73124 823.433 9.18664L825.105 7.51417ZM828.977 20.0481L827.58 18.6511L832.965 13.2663L830.78 12.1159L831.916 10.98L835.875 12.8506L836.025 13.0005L828.977 20.0481ZM834.661 25.7325L833.265 24.3356L838.649 18.9508L836.464 17.8004L837.6 16.6644L841.559 18.5351L841.709 18.6849L834.661 25.7325ZM842.811 33.8822L841.414 32.4853L846.799 27.1005L844.614 25.95L845.75 24.8141L849.709 26.6848L849.859 26.8346L842.811 33.8822ZM852.749 38.0006C851.776 38.9737 850.83 39.5167 849.912 39.6295C848.994 39.7423 848.146 39.4104 847.369 38.6338C846.602 37.8668 846.269 37.0274 846.369 36.1154C846.469 35.2034 846.986 34.2705 847.92 33.3167L849.216 32.0212C850.199 31.0384 851.148 30.4954 852.063 30.3922C852.981 30.2924 853.824 30.6259 854.591 31.3928C855.358 32.1598 855.691 32.9992 855.592 33.9112C855.495 34.82 854.979 35.7513 854.045 36.7051L852.749 38.0006ZM852.773 35.1825C853.357 34.5992 853.7 34.0949 853.803 33.6695C853.913 33.2442 853.798 32.8623 853.46 32.5239C853.131 32.1952 852.761 32.0792 852.348 32.1759C851.942 32.2726 851.465 32.5852 850.917 33.1136L849.206 34.8248C848.633 35.3984 848.283 35.9027 848.157 36.3377C848.038 36.7728 848.151 37.1627 848.496 37.5075C848.837 37.8491 849.217 37.9619 849.636 37.8459C850.055 37.7299 850.544 37.3996 851.101 36.855L852.773 35.1825ZM860.899 46.1502C859.926 47.1234 858.98 47.6664 858.062 47.7792C857.143 47.892 856.296 47.5601 855.519 46.7835C854.752 46.0165 854.419 45.177 854.518 44.2651C854.618 43.3531 855.136 42.4202 856.07 41.4663L857.366 40.1709C858.348 39.188 859.297 38.6451 860.213 38.5419C861.131 38.442 861.974 38.7756 862.741 39.5425C863.508 40.3095 863.841 41.1489 863.741 42.0609C863.645 42.9696 863.129 43.9009 862.194 44.8548L860.899 46.1502ZM860.923 43.3322C861.506 42.7489 861.85 42.2446 861.953 41.8192C862.062 41.3938 861.948 41.012 861.61 40.6736C861.281 40.3449 860.91 40.2289 860.498 40.3256C860.092 40.4223 859.615 40.7348 859.067 41.2633L857.356 42.9745C856.782 43.5481 856.433 44.0524 856.307 44.4874C856.188 44.9225 856.301 45.3124 856.645 45.6572C856.987 45.9988 857.367 46.1116 857.786 45.9956C858.205 45.8795 858.693 45.5492 859.251 45.0046L860.923 43.3322Z" fill="#033162" fill-opacity="0.4" shape-rendering="crispEdges"/>
</g>
<g filter="url(#filter3_d_1_2)">
<path d="M977.993 604.064L976.596 602.667L981.981 597.282L979.796 596.132L980.932 594.996L984.891 596.867L985.041 597.017L977.993 604.064ZM990.397 610.648C989.423 611.621 988.478 612.164 987.559 612.277C986.641 612.39 985.793 612.058 985.017 611.281C984.25 610.514 983.916 609.675 984.016 608.763C984.116 607.851 984.633 606.918 985.568 605.964L986.863 604.668C987.846 603.686 988.795 603.143 989.71 603.039C990.629 602.94 991.471 603.273 992.238 604.04C993.005 604.807 993.339 605.646 993.239 606.558C993.142 607.467 992.626 608.398 991.692 609.352L990.397 610.648ZM990.421 607.83C991.004 607.246 991.347 606.742 991.45 606.317C991.56 605.891 991.445 605.509 991.107 605.171C990.778 604.842 990.408 604.726 989.995 604.823C989.589 604.92 989.112 605.232 988.565 605.761L986.853 607.472C986.28 608.046 985.93 608.55 985.804 608.985C985.685 609.42 985.798 609.81 986.143 610.155C986.484 610.496 986.865 610.609 987.284 610.493C987.703 610.377 988.191 610.047 988.748 609.502L990.421 607.83ZM996.081 616.332C995.108 617.305 994.162 617.848 993.244 617.961C992.325 618.074 991.478 617.742 990.701 616.965C989.934 616.199 989.601 615.359 989.7 614.447C989.8 613.535 990.318 612.602 991.252 611.648L992.548 610.353C993.53 609.37 994.479 608.827 995.395 608.724C996.313 608.624 997.156 608.958 997.923 609.725C998.69 610.491 999.023 611.331 998.923 612.243C998.827 613.152 998.311 614.083 997.376 615.037L996.081 616.332ZM996.105 613.514C996.688 612.931 997.032 612.427 997.135 612.001C997.244 611.576 997.13 611.194 996.792 610.856C996.463 610.527 996.092 610.411 995.68 610.508C995.274 610.604 994.797 610.917 994.249 611.445L992.538 613.156C991.964 613.73 991.615 614.234 991.489 614.669C991.37 615.104 991.483 615.494 991.827 615.839C992.169 616.181 992.549 616.294 992.968 616.178C993.387 616.062 993.875 615.731 994.433 615.187L996.105 613.514ZM999.977 626.048L998.58 624.651L1003.96 619.266L1001.78 618.116L1002.92 616.98L1006.87 618.851L1007.02 619L999.977 626.048ZM1005.66 631.733L1004.26 630.336L1009.65 624.951L1007.46 623.8L1008.6 622.664L1012.56 624.535L1012.71 624.685L1005.66 631.733ZM1013.81 639.882L1012.41 638.485L1017.8 633.1L1015.61 631.95L1016.75 630.814L1020.71 632.685L1020.86 632.835L1013.81 639.882ZM1023.75 644.001C1022.78 644.974 1021.83 645.517 1020.91 645.63C1019.99 645.742 1019.15 645.41 1018.37 644.634C1017.6 643.867 1017.27 643.027 1017.37 642.115C1017.47 641.203 1017.99 640.271 1018.92 639.317L1020.22 638.021C1021.2 637.038 1022.15 636.495 1023.06 636.392C1023.98 636.292 1024.82 636.626 1025.59 637.393C1026.36 638.16 1026.69 638.999 1026.59 639.911C1026.49 640.82 1025.98 641.751 1025.04 642.705L1023.75 644.001ZM1023.77 641.182C1024.36 640.599 1024.7 640.095 1024.8 639.67C1024.91 639.244 1024.8 638.862 1024.46 638.524C1024.13 638.195 1023.76 638.079 1023.35 638.176C1022.94 638.273 1022.47 638.585 1021.92 639.114L1020.21 640.825C1019.63 641.398 1019.28 641.903 1019.16 642.338C1019.04 642.773 1019.15 643.163 1019.5 643.508C1019.84 643.849 1020.22 643.962 1020.64 643.846C1021.06 643.73 1021.54 643.4 1022.1 642.855L1023.77 641.182ZM1031.9 652.15C1030.93 653.123 1029.98 653.666 1029.06 653.779C1028.14 653.892 1027.3 653.56 1026.52 652.783C1025.75 652.017 1025.42 651.177 1025.52 650.265C1025.62 649.353 1026.14 648.42 1027.07 647.466L1028.37 646.171C1029.35 645.188 1030.3 644.645 1031.21 644.542C1032.13 644.442 1032.97 644.776 1033.74 645.543C1034.51 646.309 1034.84 647.149 1034.74 648.061C1034.64 648.97 1034.13 649.901 1033.19 650.855L1031.9 652.15ZM1031.92 649.332C1032.51 648.749 1032.85 648.245 1032.95 647.819C1033.06 647.394 1032.95 647.012 1032.61 646.674C1032.28 646.345 1031.91 646.229 1031.5 646.326C1031.09 646.422 1030.61 646.735 1030.07 647.263L1028.36 648.974C1027.78 649.548 1027.43 650.052 1027.31 650.487C1027.19 650.922 1027.3 651.312 1027.65 651.657C1027.99 651.999 1028.37 652.112 1028.79 651.996C1029.2 651.88 1029.69 651.549 1030.25 651.005L1031.92 649.332Z" fill="#033162" fill-opacity="0.4" shape-rendering="crispEdges"/>
</g>
<g filter="url(#filter4_d_1_2)">
<path d="M829.993 436.064L828.596 434.667L833.981 429.282L831.796 428.132L832.932 426.996L836.891 428.867L837.041 429.017L829.993 436.064ZM842.397 442.648C841.423 443.621 840.478 444.164 839.559 444.277C838.641 444.39 837.793 444.058 837.017 443.281C836.25 442.514 835.916 441.675 836.016 440.763C836.116 439.851 836.633 438.918 837.568 437.964L838.863 436.668C839.846 435.686 840.795 435.143 841.71 435.039C842.629 434.94 843.471 435.273 844.238 436.04C845.005 436.807 845.339 437.646 845.239 438.558C845.142 439.467 844.626 440.398 843.692 441.352L842.397 442.648ZM842.421 439.83C843.004 439.246 843.347 438.742 843.45 438.317C843.56 437.891 843.445 437.509 843.107 437.171C842.778 436.842 842.408 436.726 841.995 436.823C841.589 436.92 841.112 437.232 840.565 437.761L838.853 439.472C838.28 440.046 837.93 440.55 837.804 440.985C837.685 441.42 837.798 441.81 838.143 442.155C838.484 442.496 838.865 442.609 839.284 442.493C839.703 442.377 840.191 442.047 840.748 441.502L842.421 439.83ZM848.081 448.332C847.108 449.305 846.162 449.848 845.244 449.961C844.325 450.074 843.478 449.742 842.701 448.965C841.934 448.199 841.601 447.359 841.7 446.447C841.8 445.535 842.318 444.602 843.252 443.648L844.548 442.353C845.53 441.37 846.479 440.827 847.395 440.724C848.313 440.624 849.156 440.958 849.923 441.725C850.69 442.491 851.023 443.331 850.923 444.243C850.827 445.152 850.311 446.083 849.376 447.037L848.081 448.332ZM848.105 445.514C848.688 444.931 849.032 444.427 849.135 444.001C849.244 443.576 849.13 443.194 848.792 442.856C848.463 442.527 848.092 442.411 847.68 442.508C847.274 442.604 846.797 442.917 846.249 443.445L844.538 445.156C843.964 445.73 843.615 446.234 843.489 446.669C843.37 447.104 843.483 447.494 843.827 447.839C844.169 448.181 844.549 448.294 844.968 448.178C845.387 448.062 845.875 447.731 846.433 447.187L848.105 445.514ZM851.977 458.048L850.58 456.651L855.965 451.266L853.78 450.116L854.916 448.98L858.875 450.851L859.025 451L851.977 458.048ZM857.661 463.733L856.265 462.336L861.649 456.951L859.464 455.8L860.6 454.664L864.559 456.535L864.709 456.685L857.661 463.733ZM865.811 471.882L864.414 470.485L869.799 465.1L867.614 463.95L868.75 462.814L872.709 464.685L872.859 464.835L865.811 471.882ZM875.749 476.001C874.776 476.974 873.83 477.517 872.912 477.63C871.994 477.742 871.146 477.41 870.369 476.634C869.602 475.867 869.269 475.027 869.369 474.115C869.469 473.203 869.986 472.271 870.92 471.317L872.216 470.021C873.199 469.038 874.148 468.495 875.063 468.392C875.981 468.292 876.824 468.626 877.591 469.393C878.358 470.16 878.691 470.999 878.592 471.911C878.495 472.82 877.979 473.751 877.045 474.705L875.749 476.001ZM875.773 473.182C876.357 472.599 876.7 472.095 876.803 471.67C876.913 471.244 876.798 470.862 876.46 470.524C876.131 470.195 875.761 470.079 875.348 470.176C874.942 470.273 874.465 470.585 873.917 471.114L872.206 472.825C871.633 473.398 871.283 473.903 871.157 474.338C871.038 474.773 871.151 475.163 871.496 475.508C871.837 475.849 872.217 475.962 872.636 475.846C873.055 475.73 873.544 475.4 874.101 474.855L875.773 473.182ZM883.899 484.15C882.926 485.123 881.98 485.666 881.062 485.779C880.143 485.892 879.296 485.56 878.519 484.783C877.752 484.017 877.419 483.177 877.518 482.265C877.618 481.353 878.136 480.42 879.07 479.466L880.366 478.171C881.348 477.188 882.297 476.645 883.213 476.542C884.131 476.442 884.974 476.776 885.741 477.543C886.508 478.309 886.841 479.149 886.741 480.061C886.645 480.97 886.129 481.901 885.194 482.855L883.899 484.15ZM883.923 481.332C884.506 480.749 884.85 480.245 884.953 479.819C885.062 479.394 884.948 479.012 884.61 478.674C884.281 478.345 883.91 478.229 883.498 478.326C883.092 478.422 882.615 478.735 882.067 479.263L880.356 480.974C879.782 481.548 879.433 482.052 879.307 482.487C879.188 482.922 879.301 483.312 879.645 483.657C879.987 483.999 880.367 484.112 880.786 483.996C881.205 483.88 881.693 483.549 882.251 483.005L883.923 481.332Z" fill="#033162" fill-opacity="0.7" shape-rendering="crispEdges"/>
</g>
<g filter="url(#filter5_d_1_2)">
<path d="M679.993 515.064L678.596 513.667L683.981 508.282L681.796 507.132L682.932 505.996L686.891 507.867L687.041 508.017L679.993 515.064ZM692.397 521.648C691.423 522.621 690.478 523.164 689.559 523.277C688.641 523.39 687.793 523.058 687.017 522.281C686.25 521.514 685.916 520.675 686.016 519.763C686.116 518.851 686.633 517.918 687.568 516.964L688.863 515.668C689.846 514.686 690.795 514.143 691.71 514.039C692.629 513.94 693.471 514.273 694.238 515.04C695.005 515.807 695.339 516.646 695.239 517.558C695.142 518.467 694.626 519.398 693.692 520.352L692.397 521.648ZM692.421 518.83C693.004 518.246 693.347 517.742 693.45 517.317C693.56 516.891 693.445 516.509 693.107 516.171C692.778 515.842 692.408 515.726 691.995 515.823C691.589 515.92 691.112 516.232 690.565 516.761L688.853 518.472C688.28 519.046 687.93 519.55 687.804 519.985C687.685 520.42 687.798 520.81 688.143 521.155C688.484 521.496 688.865 521.609 689.284 521.493C689.703 521.377 690.191 521.047 690.748 520.502L692.421 518.83ZM698.081 527.332C697.108 528.305 696.162 528.848 695.244 528.961C694.325 529.074 693.478 528.742 692.701 527.965C691.934 527.199 691.601 526.359 691.7 525.447C691.8 524.535 692.318 523.602 693.252 522.648L694.548 521.353C695.53 520.37 696.479 519.827 697.395 519.724C698.313 519.624 699.156 519.958 699.923 520.725C700.69 521.491 701.023 522.331 700.923 523.243C700.827 524.152 700.311 525.083 699.376 526.037L698.081 527.332ZM698.105 524.514C698.688 523.931 699.032 523.427 699.135 523.001C699.244 522.576 699.13 522.194 698.792 521.856C698.463 521.527 698.092 521.411 697.68 521.508C697.274 521.604 696.797 521.917 696.249 522.445L694.538 524.156C693.964 524.73 693.615 525.234 693.489 525.669C693.37 526.104 693.483 526.494 693.827 526.839C694.169 527.181 694.549 527.294 694.968 527.178C695.387 527.062 695.875 526.731 696.433 526.187L698.105 524.514ZM701.977 537.048L700.58 535.651L705.965 530.266L703.78 529.116L704.916 527.98L708.875 529.851L709.025 530L701.977 537.048ZM707.661 542.733L706.265 541.336L711.649 535.951L709.464 534.8L710.6 533.664L714.559 535.535L714.709 535.685L707.661 542.733ZM715.811 550.882L714.414 549.485L719.799 544.1L717.614 542.95L718.75 541.814L722.709 543.685L722.859 543.835L715.811 550.882ZM725.749 555.001C724.776 555.974 723.83 556.517 722.912 556.63C721.994 556.742 721.146 556.41 720.369 555.634C719.602 554.867 719.269 554.027 719.369 553.115C719.469 552.203 719.986 551.271 720.92 550.317L722.216 549.021C723.199 548.038 724.148 547.495 725.063 547.392C725.981 547.292 726.824 547.626 727.591 548.393C728.358 549.16 728.691 549.999 728.592 550.911C728.495 551.82 727.979 552.751 727.045 553.705L725.749 555.001ZM725.773 552.182C726.357 551.599 726.7 551.095 726.803 550.67C726.913 550.244 726.798 549.862 726.46 549.524C726.131 549.195 725.761 549.079 725.348 549.176C724.942 549.273 724.465 549.585 723.917 550.114L722.206 551.825C721.633 552.398 721.283 552.903 721.157 553.338C721.038 553.773 721.151 554.163 721.496 554.508C721.837 554.849 722.217 554.962 722.636 554.846C723.055 554.73 723.544 554.4 724.101 553.855L725.773 552.182ZM733.899 563.15C732.926 564.123 731.98 564.666 731.062 564.779C730.143 564.892 729.296 564.56 728.519 563.783C727.752 563.017 727.419 562.177 727.518 561.265C727.618 560.353 728.136 559.42 729.07 558.466L730.366 557.171C731.348 556.188 732.297 555.645 733.213 555.542C734.131 555.442 734.974 555.776 735.741 556.543C736.508 557.309 736.841 558.149 736.741 559.061C736.645 559.97 736.129 560.901 735.194 561.855L733.899 563.15ZM733.923 560.332C734.506 559.749 734.85 559.245 734.953 558.819C735.062 558.394 734.948 558.012 734.61 557.674C734.281 557.345 733.91 557.229 733.498 557.326C733.092 557.422 732.615 557.735 732.067 558.263L730.356 559.974C729.782 560.548 729.433 561.052 729.307 561.487C729.188 561.922 729.301 562.312 729.645 562.657C729.987 562.999 730.367 563.112 730.786 562.996C731.205 562.88 731.693 562.549 732.251 562.005L733.923 560.332Z" fill="#033162" fill-opacity="0.7" shape-rendering="crispEdges"/>
</g>
<g filter="url(#filter6_d_1_2)">
<path d="M628.993 212.064L627.596 210.667L632.981 205.282L630.796 204.132L631.932 202.996L635.891 204.867L636.041 205.017L628.993 212.064ZM641.397 218.648C640.423 219.621 639.478 220.164 638.559 220.277C637.641 220.39 636.793 220.058 636.017 219.281C635.25 218.514 634.916 217.675 635.016 216.763C635.116 215.851 635.633 214.918 636.568 213.964L637.863 212.668C638.846 211.686 639.795 211.143 640.71 211.039C641.629 210.94 642.471 211.273 643.238 212.04C644.005 212.807 644.339 213.646 644.239 214.558C644.142 215.467 643.626 216.398 642.692 217.352L641.397 218.648ZM641.421 215.83C642.004 215.246 642.347 214.742 642.45 214.317C642.56 213.891 642.445 213.509 642.107 213.171C641.778 212.842 641.408 212.726 640.995 212.823C640.589 212.92 640.112 213.232 639.565 213.761L637.853 215.472C637.28 216.046 636.93 216.55 636.804 216.985C636.685 217.42 636.798 217.81 637.143 218.155C637.484 218.496 637.865 218.609 638.284 218.493C638.703 218.377 639.191 218.047 639.748 217.502L641.421 215.83ZM647.081 224.332C646.108 225.305 645.162 225.848 644.244 225.961C643.325 226.074 642.478 225.742 641.701 224.965C640.934 224.199 640.601 223.359 640.7 222.447C640.8 221.535 641.318 220.602 642.252 219.648L643.548 218.353C644.53 217.37 645.479 216.827 646.395 216.724C647.313 216.624 648.156 216.958 648.923 217.725C649.69 218.491 650.023 219.331 649.923 220.243C649.827 221.152 649.311 222.083 648.376 223.037L647.081 224.332ZM647.105 221.514C647.688 220.931 648.032 220.427 648.135 220.001C648.244 219.576 648.13 219.194 647.792 218.856C647.463 218.527 647.092 218.411 646.68 218.508C646.274 218.604 645.797 218.917 645.249 219.445L643.538 221.156C642.964 221.73 642.615 222.234 642.489 222.669C642.37 223.104 642.483 223.494 642.827 223.839C643.169 224.181 643.549 224.294 643.968 224.178C644.387 224.062 644.875 223.731 645.433 223.187L647.105 221.514ZM650.977 234.048L649.58 232.651L654.965 227.266L652.78 226.116L653.916 224.98L657.875 226.851L658.025 227L650.977 234.048ZM656.661 239.733L655.265 238.336L660.649 232.951L658.464 231.8L659.6 230.664L663.559 232.535L663.709 232.685L656.661 239.733ZM664.811 247.882L663.414 246.485L668.799 241.1L666.614 239.95L667.75 238.814L671.709 240.685L671.859 240.835L664.811 247.882ZM674.749 252.001C673.776 252.974 672.83 253.517 671.912 253.63C670.994 253.742 670.146 253.41 669.369 252.634C668.602 251.867 668.269 251.027 668.369 250.115C668.469 249.203 668.986 248.271 669.92 247.317L671.216 246.021C672.199 245.038 673.148 244.495 674.063 244.392C674.981 244.292 675.824 244.626 676.591 245.393C677.358 246.16 677.691 246.999 677.592 247.911C677.495 248.82 676.979 249.751 676.045 250.705L674.749 252.001ZM674.773 249.182C675.357 248.599 675.7 248.095 675.803 247.67C675.913 247.244 675.798 246.862 675.46 246.524C675.131 246.195 674.761 246.079 674.348 246.176C673.942 246.273 673.465 246.585 672.917 247.114L671.206 248.825C670.633 249.398 670.283 249.903 670.157 250.338C670.038 250.773 670.151 251.163 670.496 251.508C670.837 251.849 671.217 251.962 671.636 251.846C672.055 251.73 672.544 251.4 673.101 250.855L674.773 249.182ZM682.899 260.15C681.926 261.123 680.98 261.666 680.062 261.779C679.143 261.892 678.296 261.56 677.519 260.783C676.752 260.017 676.419 259.177 676.518 258.265C676.618 257.353 677.136 256.42 678.07 255.466L679.366 254.171C680.348 253.188 681.297 252.645 682.213 252.542C683.131 252.442 683.974 252.776 684.741 253.543C685.508 254.309 685.841 255.149 685.741 256.061C685.645 256.97 685.129 257.901 684.194 258.855L682.899 260.15ZM682.923 257.332C683.506 256.749 683.85 256.245 683.953 255.819C684.062 255.394 683.948 255.012 683.61 254.674C683.281 254.345 682.91 254.229 682.498 254.326C682.092 254.422 681.615 254.735 681.067 255.263L679.356 256.974C678.782 257.548 678.433 258.052 678.307 258.487C678.188 258.922 678.301 259.312 678.645 259.657C678.987 259.999 679.367 260.112 679.786 259.996C680.205 259.88 680.693 259.549 681.251 259.005L682.923 257.332Z" fill="#033162" fill-opacity="0.7" shape-rendering="crispEdges"/>
</g>
<g filter="url(#filter7_d_1_2)">
<path d="M988.993 329.064L987.596 327.667L992.981 322.282L990.796 321.132L991.932 319.996L995.891 321.867L996.041 322.017L988.993 329.064ZM1001.4 335.648C1000.42 336.621 999.478 337.164 998.559 337.277C997.641 337.39 996.793 337.058 996.017 336.281C995.25 335.514 994.916 334.675 995.016 333.763C995.116 332.851 995.633 331.918 996.568 330.964L997.863 329.668C998.846 328.686 999.795 328.143 1000.71 328.039C1001.63 327.94 1002.47 328.273 1003.24 329.04C1004.01 329.807 1004.34 330.646 1004.24 331.558C1004.14 332.467 1003.63 333.398 1002.69 334.352L1001.4 335.648ZM1001.42 332.83C1002 332.246 1002.35 331.742 1002.45 331.317C1002.56 330.891 1002.45 330.509 1002.11 330.171C1001.78 329.842 1001.41 329.726 1001 329.823C1000.59 329.92 1000.11 330.232 999.565 330.761L997.853 332.472C997.28 333.046 996.93 333.55 996.804 333.985C996.685 334.42 996.798 334.81 997.143 335.155C997.484 335.496 997.865 335.609 998.284 335.493C998.703 335.377 999.191 335.047 999.748 334.502L1001.42 332.83ZM1007.08 341.332C1006.11 342.305 1005.16 342.848 1004.24 342.961C1003.33 343.074 1002.48 342.742 1001.7 341.965C1000.93 341.199 1000.6 340.359 1000.7 339.447C1000.8 338.535 1001.32 337.602 1002.25 336.648L1003.55 335.353C1004.53 334.37 1005.48 333.827 1006.39 333.724C1007.31 333.624 1008.16 333.958 1008.92 334.725C1009.69 335.491 1010.02 336.331 1009.92 337.243C1009.83 338.152 1009.31 339.083 1008.38 340.037L1007.08 341.332ZM1007.11 338.514C1007.69 337.931 1008.03 337.427 1008.13 337.001C1008.24 336.576 1008.13 336.194 1007.79 335.856C1007.46 335.527 1007.09 335.411 1006.68 335.508C1006.27 335.604 1005.8 335.917 1005.25 336.445L1003.54 338.156C1002.96 338.73 1002.61 339.234 1002.49 339.669C1002.37 340.104 1002.48 340.494 1002.83 340.839C1003.17 341.181 1003.55 341.294 1003.97 341.178C1004.39 341.062 1004.88 340.731 1005.43 340.187L1007.11 338.514ZM1010.98 351.048L1009.58 349.651L1014.96 344.266L1012.78 343.116L1013.92 341.98L1017.87 343.851L1018.02 344L1010.98 351.048ZM1016.66 356.733L1015.26 355.336L1020.65 349.951L1018.46 348.8L1019.6 347.664L1023.56 349.535L1023.71 349.685L1016.66 356.733ZM1024.81 364.882L1023.41 363.485L1028.8 358.1L1026.61 356.95L1027.75 355.814L1031.71 357.685L1031.86 357.835L1024.81 364.882ZM1034.75 369.001C1033.78 369.974 1032.83 370.517 1031.91 370.63C1030.99 370.742 1030.15 370.41 1029.37 369.634C1028.6 368.867 1028.27 368.027 1028.37 367.115C1028.47 366.203 1028.99 365.271 1029.92 364.317L1031.22 363.021C1032.2 362.038 1033.15 361.495 1034.06 361.392C1034.98 361.292 1035.82 361.626 1036.59 362.393C1037.36 363.16 1037.69 363.999 1037.59 364.911C1037.49 365.82 1036.98 366.751 1036.04 367.705L1034.75 369.001ZM1034.77 366.182C1035.36 365.599 1035.7 365.095 1035.8 364.67C1035.91 364.244 1035.8 363.862 1035.46 363.524C1035.13 363.195 1034.76 363.079 1034.35 363.176C1033.94 363.273 1033.47 363.585 1032.92 364.114L1031.21 365.825C1030.63 366.398 1030.28 366.903 1030.16 367.338C1030.04 367.773 1030.15 368.163 1030.5 368.508C1030.84 368.849 1031.22 368.962 1031.64 368.846C1032.06 368.73 1032.54 368.4 1033.1 367.855L1034.77 366.182ZM1042.9 377.15C1041.93 378.123 1040.98 378.666 1040.06 378.779C1039.14 378.892 1038.3 378.56 1037.52 377.783C1036.75 377.017 1036.42 376.177 1036.52 375.265C1036.62 374.353 1037.14 373.42 1038.07 372.466L1039.37 371.171C1040.35 370.188 1041.3 369.645 1042.21 369.542C1043.13 369.442 1043.97 369.776 1044.74 370.543C1045.51 371.309 1045.84 372.149 1045.74 373.061C1045.64 373.97 1045.13 374.901 1044.19 375.855L1042.9 377.15ZM1042.92 374.332C1043.51 373.749 1043.85 373.245 1043.95 372.819C1044.06 372.394 1043.95 372.012 1043.61 371.674C1043.28 371.345 1042.91 371.229 1042.5 371.326C1042.09 371.422 1041.61 371.735 1041.07 372.263L1039.36 373.974C1038.78 374.548 1038.43 375.052 1038.31 375.487C1038.19 375.922 1038.3 376.312 1038.65 376.657C1038.99 376.999 1039.37 377.112 1039.79 376.996C1040.2 376.88 1040.69 376.549 1041.25 376.005L1042.92 374.332Z" fill="#033162" fill-opacity="0.7" shape-rendering="crispEdges"/>
</g>
<g filter="url(#filter8_d_1_2)">
<path d="M817.993 164.064L816.596 162.667L821.981 157.282L819.796 156.132L820.932 154.996L824.891 156.867L825.041 157.017L817.993 164.064ZM830.397 170.648C829.423 171.621 828.478 172.164 827.559 172.277C826.641 172.39 825.793 172.058 825.017 171.281C824.25 170.514 823.916 169.675 824.016 168.763C824.116 167.851 824.633 166.918 825.568 165.964L826.863 164.668C827.846 163.686 828.795 163.143 829.71 163.039C830.629 162.94 831.471 163.273 832.238 164.04C833.005 164.807 833.339 165.646 833.239 166.558C833.142 167.467 832.626 168.398 831.692 169.352L830.397 170.648ZM830.421 167.83C831.004 167.246 831.347 166.742 831.45 166.317C831.56 165.891 831.445 165.509 831.107 165.171C830.778 164.842 830.408 164.726 829.995 164.823C829.589 164.92 829.112 165.232 828.565 165.761L826.853 167.472C826.28 168.046 825.93 168.55 825.804 168.985C825.685 169.42 825.798 169.81 826.143 170.155C826.484 170.496 826.865 170.609 827.284 170.493C827.703 170.377 828.191 170.047 828.748 169.502L830.421 167.83ZM836.081 176.332C835.108 177.305 834.162 177.848 833.244 177.961C832.325 178.074 831.478 177.742 830.701 176.965C829.934 176.199 829.601 175.359 829.7 174.447C829.8 173.535 830.318 172.602 831.252 171.648L832.548 170.353C833.53 169.37 834.479 168.827 835.395 168.724C836.313 168.624 837.156 168.958 837.923 169.725C838.69 170.491 839.023 171.331 838.923 172.243C838.827 173.152 838.311 174.083 837.376 175.037L836.081 176.332ZM836.105 173.514C836.688 172.931 837.032 172.427 837.135 172.001C837.244 171.576 837.13 171.194 836.792 170.856C836.463 170.527 836.092 170.411 835.68 170.508C835.274 170.604 834.797 170.917 834.249 171.445L832.538 173.156C831.964 173.73 831.615 174.234 831.489 174.669C831.37 175.104 831.483 175.494 831.827 175.839C832.169 176.181 832.549 176.294 832.968 176.178C833.387 176.062 833.875 175.731 834.433 175.187L836.105 173.514ZM839.977 186.048L838.58 184.651L843.965 179.266L841.78 178.116L842.916 176.98L846.875 178.851L847.025 179L839.977 186.048ZM845.661 191.733L844.265 190.336L849.649 184.951L847.464 183.8L848.6 182.664L852.559 184.535L852.709 184.685L845.661 191.733ZM853.811 199.882L852.414 198.485L857.799 193.1L855.614 191.95L856.75 190.814L860.709 192.685L860.859 192.835L853.811 199.882ZM863.749 204.001C862.776 204.974 861.83 205.517 860.912 205.63C859.994 205.742 859.146 205.41 858.369 204.634C857.602 203.867 857.269 203.027 857.369 202.115C857.469 201.203 857.986 200.271 858.92 199.317L860.216 198.021C861.199 197.038 862.148 196.495 863.063 196.392C863.981 196.292 864.824 196.626 865.591 197.393C866.358 198.16 866.691 198.999 866.592 199.911C866.495 200.82 865.979 201.751 865.045 202.705L863.749 204.001ZM863.773 201.182C864.357 200.599 864.7 200.095 864.803 199.67C864.913 199.244 864.798 198.862 864.46 198.524C864.131 198.195 863.761 198.079 863.348 198.176C862.942 198.273 862.465 198.585 861.917 199.114L860.206 200.825C859.633 201.398 859.283 201.903 859.157 202.338C859.038 202.773 859.151 203.163 859.496 203.508C859.837 203.849 860.217 203.962 860.636 203.846C861.055 203.73 861.544 203.4 862.101 202.855L863.773 201.182ZM871.899 212.15C870.926 213.123 869.98 213.666 869.062 213.779C868.143 213.892 867.296 213.56 866.519 212.783C865.752 212.017 865.419 211.177 865.518 210.265C865.618 209.353 866.136 208.42 867.07 207.466L868.366 206.171C869.348 205.188 870.297 204.645 871.213 204.542C872.131 204.442 872.974 204.776 873.741 205.543C874.508 206.309 874.841 207.149 874.741 208.061C874.645 208.97 874.129 209.901 873.194 210.855L871.899 212.15ZM871.923 209.332C872.506 208.749 872.85 208.245 872.953 207.819C873.062 207.394 872.948 207.012 872.61 206.674C872.281 206.345 871.91 206.229 871.498 206.326C871.092 206.422 870.615 206.735 870.067 207.263L868.356 208.974C867.782 209.548 867.433 210.052 867.307 210.487C867.188 210.922 867.301 211.312 867.645 211.657C867.987 211.999 868.367 212.112 868.786 211.996C869.205 211.88 869.693 211.549 870.251 211.005L871.923 209.332Z" fill="#033162" fill-opacity="0.7" shape-rendering="crispEdges"/>
</g>
<g filter="url(#filter9_d_1_2)">
<path d="M1083.99 483.064L1082.6 481.667L1087.98 476.282L1085.8 475.132L1086.93 473.996L1090.89 475.867L1091.04 476.017L1083.99 483.064ZM1096.4 489.648C1095.42 490.621 1094.48 491.164 1093.56 491.277C1092.64 491.39 1091.79 491.058 1091.02 490.281C1090.25 489.514 1089.92 488.675 1090.02 487.763C1090.12 486.851 1090.63 485.918 1091.57 484.964L1092.86 483.668C1093.85 482.686 1094.79 482.143 1095.71 482.039C1096.63 481.94 1097.47 482.273 1098.24 483.04C1099.01 483.807 1099.34 484.646 1099.24 485.558C1099.14 486.467 1098.63 487.398 1097.69 488.352L1096.4 489.648ZM1096.42 486.83C1097 486.246 1097.35 485.742 1097.45 485.317C1097.56 484.891 1097.45 484.509 1097.11 484.171C1096.78 483.842 1096.41 483.726 1096 483.823C1095.59 483.92 1095.11 484.232 1094.56 484.761L1092.85 486.472C1092.28 487.046 1091.93 487.55 1091.8 487.985C1091.69 488.42 1091.8 488.81 1092.14 489.155C1092.48 489.496 1092.86 489.609 1093.28 489.493C1093.7 489.377 1094.19 489.047 1094.75 488.502L1096.42 486.83ZM1102.08 495.332C1101.11 496.305 1100.16 496.848 1099.24 496.961C1098.33 497.074 1097.48 496.742 1096.7 495.965C1095.93 495.199 1095.6 494.359 1095.7 493.447C1095.8 492.535 1096.32 491.602 1097.25 490.648L1098.55 489.353C1099.53 488.37 1100.48 487.827 1101.39 487.724C1102.31 487.624 1103.16 487.958 1103.92 488.725C1104.69 489.491 1105.02 490.331 1104.92 491.243C1104.83 492.152 1104.31 493.083 1103.38 494.037L1102.08 495.332ZM1102.11 492.514C1102.69 491.931 1103.03 491.427 1103.13 491.001C1103.24 490.576 1103.13 490.194 1102.79 489.856C1102.46 489.527 1102.09 489.411 1101.68 489.508C1101.27 489.604 1100.8 489.917 1100.25 490.445L1098.54 492.156C1097.96 492.73 1097.61 493.234 1097.49 493.669C1097.37 494.104 1097.48 494.494 1097.83 494.839C1098.17 495.181 1098.55 495.294 1098.97 495.178C1099.39 495.062 1099.88 494.731 1100.43 494.187L1102.11 492.514ZM1105.98 505.048L1104.58 503.651L1109.96 498.266L1107.78 497.116L1108.92 495.98L1112.87 497.851L1113.02 498L1105.98 505.048ZM1111.66 510.733L1110.26 509.336L1115.65 503.951L1113.46 502.8L1114.6 501.664L1118.56 503.535L1118.71 503.685L1111.66 510.733ZM1119.81 518.882L1118.41 517.485L1123.8 512.1L1121.61 510.95L1122.75 509.814L1126.71 511.685L1126.86 511.835L1119.81 518.882ZM1129.75 523.001C1128.78 523.974 1127.83 524.517 1126.91 524.63C1125.99 524.742 1125.15 524.41 1124.37 523.634C1123.6 522.867 1123.27 522.027 1123.37 521.115C1123.47 520.203 1123.99 519.271 1124.92 518.317L1126.22 517.021C1127.2 516.038 1128.15 515.495 1129.06 515.392C1129.98 515.292 1130.82 515.626 1131.59 516.393C1132.36 517.16 1132.69 517.999 1132.59 518.911C1132.49 519.82 1131.98 520.751 1131.04 521.705L1129.75 523.001ZM1129.77 520.182C1130.36 519.599 1130.7 519.095 1130.8 518.67C1130.91 518.244 1130.8 517.862 1130.46 517.524C1130.13 517.195 1129.76 517.079 1129.35 517.176C1128.94 517.273 1128.47 517.585 1127.92 518.114L1126.21 519.825C1125.63 520.398 1125.28 520.903 1125.16 521.338C1125.04 521.773 1125.15 522.163 1125.5 522.508C1125.84 522.849 1126.22 522.962 1126.64 522.846C1127.06 522.73 1127.54 522.4 1128.1 521.855L1129.77 520.182ZM1137.9 531.15C1136.93 532.123 1135.98 532.666 1135.06 532.779C1134.14 532.892 1133.3 532.56 1132.52 531.783C1131.75 531.017 1131.42 530.177 1131.52 529.265C1131.62 528.353 1132.14 527.42 1133.07 526.466L1134.37 525.171C1135.35 524.188 1136.3 523.645 1137.21 523.542C1138.13 523.442 1138.97 523.776 1139.74 524.543C1140.51 525.309 1140.84 526.149 1140.74 527.061C1140.64 527.97 1140.13 528.901 1139.19 529.855L1137.9 531.15ZM1137.92 528.332C1138.51 527.749 1138.85 527.245 1138.95 526.819C1139.06 526.394 1138.95 526.012 1138.61 525.674C1138.28 525.345 1137.91 525.229 1137.5 525.326C1137.09 525.422 1136.61 525.735 1136.07 526.263L1134.36 527.974C1133.78 528.548 1133.43 529.052 1133.31 529.487C1133.19 529.922 1133.3 530.312 1133.65 530.657C1133.99 530.999 1134.37 531.112 1134.79 530.996C1135.2 530.88 1135.69 530.549 1136.25 530.005L1137.92 528.332Z" fill="#033162" fill-opacity="0.7" shape-rendering="crispEdges"/>
</g>
<g filter="url(#filter10_d_1_2)">
<path d="M1150.99 279.064L1149.6 277.667L1154.98 272.282L1152.8 271.132L1153.93 269.996L1157.89 271.867L1158.04 272.017L1150.99 279.064ZM1163.4 285.648C1162.42 286.621 1161.48 287.164 1160.56 287.277C1159.64 287.39 1158.79 287.058 1158.02 286.281C1157.25 285.514 1156.92 284.675 1157.02 283.763C1157.12 282.851 1157.63 281.918 1158.57 280.964L1159.86 279.668C1160.85 278.686 1161.79 278.143 1162.71 278.039C1163.63 277.94 1164.47 278.273 1165.24 279.04C1166.01 279.807 1166.34 280.646 1166.24 281.558C1166.14 282.467 1165.63 283.398 1164.69 284.352L1163.4 285.648ZM1163.42 282.83C1164 282.246 1164.35 281.742 1164.45 281.317C1164.56 280.891 1164.45 280.509 1164.11 280.171C1163.78 279.842 1163.41 279.726 1163 279.823C1162.59 279.92 1162.11 280.232 1161.56 280.761L1159.85 282.472C1159.28 283.046 1158.93 283.55 1158.8 283.985C1158.69 284.42 1158.8 284.81 1159.14 285.155C1159.48 285.496 1159.86 285.609 1160.28 285.493C1160.7 285.377 1161.19 285.047 1161.75 284.502L1163.42 282.83ZM1169.08 291.332C1168.11 292.305 1167.16 292.848 1166.24 292.961C1165.33 293.074 1164.48 292.742 1163.7 291.965C1162.93 291.199 1162.6 290.359 1162.7 289.447C1162.8 288.535 1163.32 287.602 1164.25 286.648L1165.55 285.353C1166.53 284.37 1167.48 283.827 1168.39 283.724C1169.31 283.624 1170.16 283.958 1170.92 284.725C1171.69 285.491 1172.02 286.331 1171.92 287.243C1171.83 288.152 1171.31 289.083 1170.38 290.037L1169.08 291.332ZM1169.11 288.514C1169.69 287.931 1170.03 287.427 1170.13 287.001C1170.24 286.576 1170.13 286.194 1169.79 285.856C1169.46 285.527 1169.09 285.411 1168.68 285.508C1168.27 285.604 1167.8 285.917 1167.25 286.445L1165.54 288.156C1164.96 288.73 1164.61 289.234 1164.49 289.669C1164.37 290.104 1164.48 290.494 1164.83 290.839C1165.17 291.181 1165.55 291.294 1165.97 291.178C1166.39 291.062 1166.88 290.731 1167.43 290.187L1169.11 288.514ZM1172.98 301.048L1171.58 299.651L1176.96 294.266L1174.78 293.116L1175.92 291.98L1179.87 293.851L1180.02 294L1172.98 301.048ZM1178.66 306.733L1177.26 305.336L1182.65 299.951L1180.46 298.8L1181.6 297.664L1185.56 299.535L1185.71 299.685L1178.66 306.733ZM1186.81 314.882L1185.41 313.485L1190.8 308.1L1188.61 306.95L1189.75 305.814L1193.71 307.685L1193.86 307.835L1186.81 314.882ZM1196.75 319.001C1195.78 319.974 1194.83 320.517 1193.91 320.63C1192.99 320.742 1192.15 320.41 1191.37 319.634C1190.6 318.867 1190.27 318.027 1190.37 317.115C1190.47 316.203 1190.99 315.271 1191.92 314.317L1193.22 313.021C1194.2 312.038 1195.15 311.495 1196.06 311.392C1196.98 311.292 1197.82 311.626 1198.59 312.393C1199.36 313.16 1199.69 313.999 1199.59 314.911C1199.49 315.82 1198.98 316.751 1198.04 317.705L1196.75 319.001ZM1196.77 316.182C1197.36 315.599 1197.7 315.095 1197.8 314.67C1197.91 314.244 1197.8 313.862 1197.46 313.524C1197.13 313.195 1196.76 313.079 1196.35 313.176C1195.94 313.273 1195.47 313.585 1194.92 314.114L1193.21 315.825C1192.63 316.398 1192.28 316.903 1192.16 317.338C1192.04 317.773 1192.15 318.163 1192.5 318.508C1192.84 318.849 1193.22 318.962 1193.64 318.846C1194.06 318.73 1194.54 318.4 1195.1 317.855L1196.77 316.182ZM1204.9 327.15C1203.93 328.123 1202.98 328.666 1202.06 328.779C1201.14 328.892 1200.3 328.56 1199.52 327.783C1198.75 327.017 1198.42 326.177 1198.52 325.265C1198.62 324.353 1199.14 323.42 1200.07 322.466L1201.37 321.171C1202.35 320.188 1203.3 319.645 1204.21 319.542C1205.13 319.442 1205.97 319.776 1206.74 320.543C1207.51 321.309 1207.84 322.149 1207.74 323.061C1207.64 323.97 1207.13 324.901 1206.19 325.855L1204.9 327.15ZM1204.92 324.332C1205.51 323.749 1205.85 323.245 1205.95 322.819C1206.06 322.394 1205.95 322.012 1205.61 321.674C1205.28 321.345 1204.91 321.229 1204.5 321.326C1204.09 321.422 1203.61 321.735 1203.07 322.263L1201.36 323.974C1200.78 324.548 1200.43 325.052 1200.31 325.487C1200.19 325.922 1200.3 326.312 1200.65 326.657C1200.99 326.999 1201.37 327.112 1201.79 326.996C1202.2 326.88 1202.69 326.549 1203.25 326.005L1204.92 324.332Z" fill="#033162" fill-opacity="0.7" shape-rendering="crispEdges"/>
</g>
<g filter="url(#filter11_d_1_2)">
<path d="M954.993 167.064L953.596 165.667L958.981 160.282L956.796 159.132L957.932 157.996L961.891 159.867L962.041 160.017L954.993 167.064ZM967.397 173.648C966.423 174.621 965.478 175.164 964.559 175.277C963.641 175.39 962.793 175.058 962.017 174.281C961.25 173.514 960.916 172.675 961.016 171.763C961.116 170.851 961.633 169.918 962.568 168.964L963.863 167.668C964.846 166.686 965.795 166.143 966.71 166.039C967.629 165.94 968.471 166.273 969.238 167.04C970.005 167.807 970.339 168.646 970.239 169.558C970.142 170.467 969.626 171.398 968.692 172.352L967.397 173.648ZM967.421 170.83C968.004 170.246 968.347 169.742 968.45 169.317C968.56 168.891 968.445 168.509 968.107 168.171C967.778 167.842 967.408 167.726 966.995 167.823C966.589 167.92 966.112 168.232 965.565 168.761L963.853 170.472C963.28 171.046 962.93 171.55 962.804 171.985C962.685 172.42 962.798 172.81 963.143 173.155C963.484 173.496 963.865 173.609 964.284 173.493C964.703 173.377 965.191 173.047 965.748 172.502L967.421 170.83ZM973.081 179.332C972.108 180.305 971.162 180.848 970.244 180.961C969.325 181.074 968.478 180.742 967.701 179.965C966.934 179.199 966.601 178.359 966.7 177.447C966.8 176.535 967.318 175.602 968.252 174.648L969.548 173.353C970.53 172.37 971.479 171.827 972.395 171.724C973.313 171.624 974.156 171.958 974.923 172.725C975.69 173.491 976.023 174.331 975.923 175.243C975.827 176.152 975.311 177.083 974.376 178.037L973.081 179.332ZM973.105 176.514C973.688 175.931 974.032 175.427 974.135 175.001C974.244 174.576 974.13 174.194 973.792 173.856C973.463 173.527 973.092 173.411 972.68 173.508C972.274 173.604 971.797 173.917 971.249 174.445L969.538 176.156C968.964 176.73 968.615 177.234 968.489 177.669C968.37 178.104 968.483 178.494 968.827 178.839C969.169 179.181 969.549 179.294 969.968 179.178C970.387 179.062 970.875 178.731 971.433 178.187L973.105 176.514ZM976.977 189.048L975.58 187.651L980.965 182.266L978.78 181.116L979.916 179.98L983.875 181.851L984.025 182L976.977 189.048ZM982.661 194.733L981.265 193.336L986.649 187.951L984.464 186.8L985.6 185.664L989.559 187.535L989.709 187.685L982.661 194.733ZM990.811 202.882L989.414 201.485L994.799 196.1L992.614 194.95L993.75 193.814L997.709 195.685L997.859 195.835L990.811 202.882ZM1000.75 207.001C999.776 207.974 998.83 208.517 997.912 208.63C996.994 208.742 996.146 208.41 995.369 207.634C994.602 206.867 994.269 206.027 994.369 205.115C994.469 204.203 994.986 203.271 995.92 202.317L997.216 201.021C998.199 200.038 999.148 199.495 1000.06 199.392C1000.98 199.292 1001.82 199.626 1002.59 200.393C1003.36 201.16 1003.69 201.999 1003.59 202.911C1003.49 203.82 1002.98 204.751 1002.04 205.705L1000.75 207.001ZM1000.77 204.182C1001.36 203.599 1001.7 203.095 1001.8 202.67C1001.91 202.244 1001.8 201.862 1001.46 201.524C1001.13 201.195 1000.76 201.079 1000.35 201.176C999.942 201.273 999.465 201.585 998.917 202.114L997.206 203.825C996.633 204.398 996.283 204.903 996.157 205.338C996.038 205.773 996.151 206.163 996.496 206.508C996.837 206.849 997.217 206.962 997.636 206.846C998.055 206.73 998.544 206.4 999.101 205.855L1000.77 204.182ZM1008.9 215.15C1007.93 216.123 1006.98 216.666 1006.06 216.779C1005.14 216.892 1004.3 216.56 1003.52 215.783C1002.75 215.017 1002.42 214.177 1002.52 213.265C1002.62 212.353 1003.14 211.42 1004.07 210.466L1005.37 209.171C1006.35 208.188 1007.3 207.645 1008.21 207.542C1009.13 207.442 1009.97 207.776 1010.74 208.543C1011.51 209.309 1011.84 210.149 1011.74 211.061C1011.64 211.97 1011.13 212.901 1010.19 213.855L1008.9 215.15ZM1008.92 212.332C1009.51 211.749 1009.85 211.245 1009.95 210.819C1010.06 210.394 1009.95 210.012 1009.61 209.674C1009.28 209.345 1008.91 209.229 1008.5 209.326C1008.09 209.422 1007.61 209.735 1007.07 210.263L1005.36 211.974C1004.78 212.548 1004.43 213.052 1004.31 213.487C1004.19 213.922 1004.3 214.312 1004.65 214.657C1004.99 214.999 1005.37 215.112 1005.79 214.996C1006.2 214.88 1006.69 214.549 1007.25 214.005L1008.92 212.332Z" fill="#033162" fill-opacity="0.4" shape-rendering="crispEdges"/>
</g>
<g filter="url(#filter12_d_1_2)">
<path d="M1150.82 347.064L1149.42 345.667L1154.81 340.282L1152.62 339.132L1153.76 337.996L1157.72 339.867L1157.87 340.017L1150.82 347.064ZM1163.22 353.648C1162.25 354.621 1161.31 355.164 1160.39 355.277C1159.47 355.39 1158.62 355.058 1157.84 354.281C1157.08 353.514 1156.74 352.675 1156.84 351.763C1156.94 350.851 1157.46 349.918 1158.4 348.964L1159.69 347.668C1160.67 346.686 1161.62 346.143 1162.54 346.039C1163.46 345.94 1164.3 346.273 1165.07 347.04C1165.83 347.807 1166.17 348.646 1166.07 349.558C1165.97 350.467 1165.45 351.398 1164.52 352.352L1163.22 353.648ZM1163.25 350.83C1163.83 350.246 1164.18 349.742 1164.28 349.317C1164.39 348.891 1164.27 348.509 1163.94 348.171C1163.61 347.842 1163.24 347.726 1162.82 347.823C1162.42 347.92 1161.94 348.232 1161.39 348.761L1159.68 350.472C1159.11 351.046 1158.76 351.55 1158.63 351.985C1158.51 352.42 1158.63 352.81 1158.97 353.155C1159.31 353.496 1159.69 353.609 1160.11 353.493C1160.53 353.377 1161.02 353.047 1161.58 352.502L1163.25 350.83ZM1168.91 359.332C1167.94 360.305 1166.99 360.848 1166.07 360.961C1165.15 361.074 1164.31 360.742 1163.53 359.965C1162.76 359.199 1162.43 358.359 1162.53 357.447C1162.63 356.535 1163.15 355.602 1164.08 354.648L1165.38 353.353C1166.36 352.37 1167.31 351.827 1168.22 351.724C1169.14 351.624 1169.98 351.958 1170.75 352.725C1171.52 353.491 1171.85 354.331 1171.75 355.243C1171.65 356.152 1171.14 357.083 1170.2 358.037L1168.91 359.332ZM1168.93 356.514C1169.52 355.931 1169.86 355.427 1169.96 355.001C1170.07 354.576 1169.96 354.194 1169.62 353.856C1169.29 353.527 1168.92 353.411 1168.51 353.508C1168.1 353.604 1167.63 353.917 1167.08 354.445L1165.37 356.156C1164.79 356.73 1164.44 357.234 1164.32 357.669C1164.2 358.104 1164.31 358.494 1164.66 358.839C1165 359.181 1165.38 359.294 1165.8 359.178C1166.22 359.062 1166.7 358.731 1167.26 358.187L1168.93 356.514ZM1172.81 369.048L1171.41 367.651L1176.79 362.266L1174.61 361.116L1175.74 359.98L1179.7 361.851L1179.85 362L1172.81 369.048ZM1178.49 374.733L1177.09 373.336L1182.48 367.951L1180.29 366.8L1181.43 365.664L1185.39 367.535L1185.54 367.685L1178.49 374.733ZM1186.64 382.882L1185.24 381.485L1190.63 376.1L1188.44 374.95L1189.58 373.814L1193.54 375.685L1193.69 375.835L1186.64 382.882ZM1196.58 387.001C1195.6 387.974 1194.66 388.517 1193.74 388.63C1192.82 388.742 1191.97 388.41 1191.2 387.634C1190.43 386.867 1190.1 386.027 1190.2 385.115C1190.3 384.203 1190.81 383.271 1191.75 382.317L1193.04 381.021C1194.03 380.038 1194.98 379.495 1195.89 379.392C1196.81 379.292 1197.65 379.626 1198.42 380.393C1199.19 381.16 1199.52 381.999 1199.42 382.911C1199.32 383.82 1198.81 384.751 1197.87 385.705L1196.58 387.001ZM1196.6 384.182C1197.19 383.599 1197.53 383.095 1197.63 382.67C1197.74 382.244 1197.63 381.862 1197.29 381.524C1196.96 381.195 1196.59 381.079 1196.18 381.176C1195.77 381.273 1195.29 381.585 1194.75 382.114L1193.03 383.825C1192.46 384.398 1192.11 384.903 1191.99 385.338C1191.87 385.773 1191.98 386.163 1192.32 386.508C1192.67 386.849 1193.05 386.962 1193.46 386.846C1193.88 386.73 1194.37 386.4 1194.93 385.855L1196.6 384.182ZM1204.73 395.15C1203.75 396.123 1202.81 396.666 1201.89 396.779C1200.97 396.892 1200.12 396.56 1199.35 395.783C1198.58 395.017 1198.25 394.177 1198.35 393.265C1198.45 392.353 1198.96 391.42 1199.9 390.466L1201.19 389.171C1202.18 388.188 1203.13 387.645 1204.04 387.542C1204.96 387.442 1205.8 387.776 1206.57 388.543C1207.34 389.309 1207.67 390.149 1207.57 391.061C1207.47 391.97 1206.96 392.901 1206.02 393.855L1204.73 395.15ZM1204.75 392.332C1205.33 391.749 1205.68 391.245 1205.78 390.819C1205.89 390.394 1205.78 390.012 1205.44 389.674C1205.11 389.345 1204.74 389.229 1204.33 389.326C1203.92 389.422 1203.44 389.735 1202.9 390.263L1201.18 391.974C1200.61 392.548 1200.26 393.052 1200.14 393.487C1200.02 393.922 1200.13 394.312 1200.47 394.657C1200.82 394.999 1201.2 395.112 1201.61 394.996C1202.03 394.88 1202.52 394.549 1203.08 394.005L1204.75 392.332Z" fill="#033162" fill-opacity="0.4" shape-rendering="crispEdges"/>
</g>
<g filter="url(#filter13_d_1_2)">
<path d="M483.44 173.097L482.243 171.899L486.858 167.284L484.985 166.298L485.959 165.324L489.352 166.928L489.481 167.056L483.44 173.097ZM494.071 178.74C493.237 179.574 492.427 180.04 491.639 180.136C490.852 180.233 490.126 179.948 489.46 179.283C488.803 178.625 488.517 177.906 488.602 177.124C488.688 176.342 489.131 175.543 489.932 174.725L491.043 173.615C491.885 172.772 492.699 172.307 493.483 172.219C494.27 172.133 494.993 172.419 495.65 173.076C496.307 173.734 496.593 174.453 496.508 175.235C496.425 176.014 495.983 176.812 495.182 177.63L494.071 178.74ZM494.092 176.324C494.592 175.824 494.886 175.392 494.975 175.028C495.069 174.663 494.971 174.336 494.681 174.046C494.399 173.764 494.081 173.664 493.728 173.747C493.38 173.83 492.971 174.098 492.501 174.551L491.034 176.018C490.543 176.509 490.243 176.942 490.135 177.315C490.033 177.688 490.13 178.022 490.425 178.317C490.718 178.61 491.044 178.707 491.403 178.607C491.762 178.508 492.181 178.225 492.659 177.758L494.092 176.324ZM498.944 183.612C498.11 184.446 497.299 184.912 496.512 185.009C495.725 185.105 494.998 184.821 494.332 184.155C493.675 183.498 493.389 182.778 493.475 181.996C493.56 181.215 494.004 180.415 494.805 179.598L495.915 178.487C496.758 177.645 497.571 177.179 498.356 177.091C499.143 177.005 499.865 177.291 500.522 177.949C501.18 178.606 501.466 179.325 501.38 180.107C501.297 180.886 500.855 181.684 500.054 182.502L498.944 183.612ZM498.965 181.197C499.465 180.697 499.759 180.265 499.847 179.9C499.941 179.535 499.843 179.208 499.553 178.918C499.271 178.636 498.954 178.537 498.6 178.62C498.252 178.703 497.843 178.971 497.374 179.424L495.907 180.89C495.415 181.382 495.116 181.814 495.008 182.187C494.906 182.56 495.002 182.894 495.298 183.19C495.591 183.483 495.917 183.579 496.276 183.48C496.635 183.38 497.053 183.097 497.531 182.63L498.965 181.197ZM502.283 191.94L501.086 190.743L505.701 186.127L503.829 185.141L504.802 184.168L508.196 185.771L508.324 185.899L502.283 191.94ZM507.156 196.813L505.958 195.615L510.574 191L508.701 190.014L509.675 189.04L513.068 190.643L513.196 190.772L507.156 196.813ZM514.141 203.798L512.944 202.601L517.559 197.985L515.687 196.999L516.66 196.025L520.053 197.629L520.182 197.757L514.141 203.798ZM522.66 207.328C521.825 208.162 521.015 208.628 520.228 208.724C519.44 208.821 518.714 208.536 518.048 207.871C517.391 207.213 517.105 206.494 517.191 205.712C517.276 204.93 517.719 204.131 518.521 203.313L519.631 202.203C520.473 201.36 521.287 200.895 522.071 200.807C522.858 200.721 523.581 201.007 524.238 201.664C524.896 202.322 525.181 203.041 525.096 203.823C525.013 204.602 524.571 205.4 523.77 206.218L522.66 207.328ZM522.68 204.913C523.18 204.413 523.474 203.98 523.563 203.616C523.657 203.251 523.559 202.924 523.269 202.634C522.987 202.352 522.669 202.253 522.316 202.335C521.968 202.418 521.559 202.686 521.089 203.139L519.623 204.606C519.131 205.098 518.831 205.53 518.724 205.903C518.621 206.276 518.718 206.61 519.014 206.905C519.306 207.198 519.632 207.295 519.991 207.195C520.35 207.096 520.769 206.813 521.247 206.346L522.68 204.913ZM529.645 214.313C528.811 215.148 528 215.613 527.213 215.71C526.426 215.806 525.699 215.522 525.034 214.856C524.376 214.199 524.09 213.479 524.176 212.698C524.262 211.916 524.705 211.116 525.506 210.299L526.616 209.188C527.459 208.346 528.272 207.88 529.057 207.792C529.844 207.706 530.566 207.992 531.224 208.65C531.881 209.307 532.167 210.027 532.081 210.808C531.998 211.587 531.556 212.386 530.755 213.203L529.645 214.313ZM529.666 211.898C530.166 211.398 530.46 210.966 530.548 210.601C530.642 210.237 530.544 209.909 530.254 209.619C529.972 209.337 529.655 209.238 529.301 209.321C528.953 209.404 528.544 209.672 528.075 210.125L526.608 211.591C526.116 212.083 525.817 212.515 525.709 212.888C525.607 213.261 525.703 213.595 525.999 213.891C526.292 214.184 526.618 214.28 526.977 214.181C527.336 214.081 527.754 213.798 528.232 213.332L529.666 211.898Z" fill="#033162" fill-opacity="0.7" shape-rendering="crispEdges"/>
</g>
<g filter="url(#filter14_d_1_2)">
<path d="M267.44 38.0969L266.243 36.8995L270.858 32.284L268.985 31.2979L269.959 30.3242L273.352 31.9277L273.481 32.0561L267.44 38.0969ZM278.071 43.7399C277.237 44.5741 276.427 45.0395 275.639 45.1362C274.852 45.2329 274.126 44.9484 273.46 44.2827C272.803 43.6253 272.517 42.9058 272.602 42.1241C272.688 41.3424 273.131 40.5428 273.932 39.7252L275.043 38.6148C275.885 37.7723 276.699 37.3069 277.483 37.2185C278.27 37.1329 278.993 37.4188 279.65 38.0762C280.307 38.7336 280.593 39.4531 280.508 40.2348C280.425 41.0137 279.983 41.812 279.182 42.6295L278.071 43.7399ZM278.092 41.3244C278.592 40.8245 278.886 40.3922 278.975 40.0276C279.069 39.663 278.971 39.3357 278.681 39.0457C278.399 38.7639 278.081 38.6645 277.728 38.7474C277.38 38.8302 276.971 39.0982 276.501 39.5511L275.034 41.0178C274.543 41.5095 274.243 41.9418 274.135 42.3147C274.033 42.6876 274.13 43.0218 274.425 43.3173C274.718 43.6101 275.044 43.7068 275.403 43.6073C275.762 43.5079 276.181 43.2248 276.659 42.758L278.092 41.3244ZM282.944 48.6123C282.11 49.4465 281.299 49.9119 280.512 50.0086C279.725 50.1053 278.998 49.8208 278.332 49.1551C277.675 48.4977 277.389 47.7782 277.475 46.9965C277.56 46.2148 278.004 45.4152 278.805 44.5976L279.915 43.4872C280.758 42.6447 281.571 42.1793 282.356 42.0909C283.143 42.0053 283.865 42.2912 284.522 42.9486C285.18 43.606 285.466 44.3255 285.38 45.1072C285.297 45.8861 284.855 46.6844 284.054 47.502L282.944 48.6123ZM282.965 46.1968C283.465 45.6969 283.759 45.2646 283.847 44.9C283.941 44.5354 283.843 44.2081 283.553 43.9181C283.271 43.6363 282.954 43.5369 282.6 43.6198C282.252 43.7026 281.843 43.9706 281.374 44.4236L279.907 45.8902C279.415 46.3819 279.116 46.8142 279.008 47.1871C278.906 47.56 279.002 47.8942 279.298 48.1897C279.591 48.4825 279.917 48.5792 280.276 48.4797C280.635 48.3803 281.053 48.0972 281.531 47.6304L282.965 46.1968ZM286.283 56.9402L285.086 55.7428L289.701 51.1273L287.829 50.1412L288.802 49.1675L292.196 50.7709L292.324 50.8994L286.283 56.9402ZM291.156 61.8126L289.958 60.6152L294.574 55.9997L292.701 55.0136L293.675 54.0399L297.068 55.6433L297.196 55.7718L291.156 61.8126ZM298.141 68.798L296.944 67.6006L301.559 62.9851L299.687 61.999L300.66 61.0254L304.053 62.6288L304.182 62.7572L298.141 68.798ZM306.66 72.328C305.825 73.1622 305.015 73.6276 304.228 73.7243C303.44 73.821 302.714 73.5365 302.048 72.8708C301.391 72.2134 301.105 71.4939 301.191 70.7122C301.276 69.9305 301.719 69.1309 302.521 68.3133L303.631 67.2029C304.473 66.3604 305.287 65.895 306.071 65.8066C306.858 65.721 307.581 66.0069 308.238 66.6643C308.896 67.3217 309.181 68.0412 309.096 68.8229C309.013 69.6018 308.571 70.4001 307.77 71.2177L306.66 72.328ZM306.68 69.9125C307.18 69.4126 307.474 68.9803 307.563 68.6157C307.657 68.2511 307.559 67.9238 307.269 67.6338C306.987 67.352 306.669 67.2526 306.316 67.3355C305.968 67.4183 305.559 67.6863 305.089 68.1393L303.623 69.6059C303.131 70.0976 302.831 70.5299 302.724 70.9028C302.621 71.2757 302.718 71.6099 303.014 71.9054C303.306 72.1982 303.632 72.2949 303.991 72.1954C304.35 72.096 304.769 71.8129 305.247 71.3461L306.68 69.9125ZM313.645 79.3135C312.811 80.1476 312 80.6131 311.213 80.7097C310.426 80.8064 309.699 80.5219 309.034 79.8562C308.376 79.1988 308.09 78.4793 308.176 77.6976C308.262 76.9159 308.705 76.1163 309.506 75.2987L310.616 74.1883C311.459 73.3459 312.272 72.8805 313.057 72.7921C313.844 72.7064 314.566 72.9923 315.224 73.6497C315.881 74.3071 316.167 75.0266 316.081 75.8083C315.998 76.5872 315.556 77.3855 314.755 78.2031L313.645 79.3135ZM313.666 76.898C314.166 76.398 314.46 75.9658 314.548 75.6012C314.642 75.2366 314.544 74.9092 314.254 74.6192C313.972 74.3375 313.655 74.238 313.301 74.3209C312.953 74.4038 312.544 74.6717 312.075 75.1247L310.608 76.5914C310.116 77.083 309.817 77.5153 309.709 77.8882C309.607 78.2611 309.703 78.5953 309.999 78.8909C310.292 79.1837 310.618 79.2803 310.977 79.1809C311.336 79.0815 311.754 78.7983 312.232 78.3315L313.666 76.898Z" fill="#033162" fill-opacity="0.4" shape-rendering="crispEdges"/>
</g>
<g filter="url(#filter15_d_1_2)">
<path d="M1038.13 628.225L1034.14 624.234L1049.53 608.849L1043.28 605.562L1046.53 602.316L1057.84 607.661L1058.27 608.089L1038.13 628.225ZM1073.57 647.035C1070.79 649.816 1068.09 651.367 1065.46 651.69C1062.84 652.012 1060.42 651.064 1058.2 648.845C1056.01 646.653 1055.06 644.255 1055.34 641.649C1055.63 639.044 1057.1 636.378 1059.77 633.653L1063.48 629.952C1066.28 627.143 1069 625.592 1071.61 625.297C1074.23 625.012 1076.64 625.965 1078.83 628.156C1081.02 630.348 1081.98 632.746 1081.69 635.352C1081.42 637.948 1079.94 640.609 1077.27 643.334L1073.57 647.035ZM1073.64 638.984C1075.31 637.317 1076.29 635.876 1076.58 634.661C1076.9 633.446 1076.57 632.355 1075.6 631.388C1074.66 630.449 1073.6 630.117 1072.43 630.394C1071.27 630.67 1069.9 631.563 1068.34 633.073L1063.45 637.962C1061.81 639.601 1060.81 641.042 1060.45 642.285C1060.11 643.528 1060.43 644.642 1061.42 645.627C1062.39 646.603 1063.48 646.925 1064.68 646.594C1065.87 646.262 1067.27 645.318 1068.86 643.762L1073.64 638.984ZM1089.81 663.277C1087.03 666.057 1084.33 667.609 1081.71 667.931C1079.08 668.253 1076.66 667.305 1074.44 665.086C1072.25 662.895 1071.3 660.496 1071.58 657.891C1071.87 655.285 1073.35 652.62 1076.02 649.894L1079.72 646.193C1082.53 643.385 1085.24 641.833 1087.85 641.539C1090.48 641.253 1092.88 642.206 1095.07 644.398C1097.27 646.589 1098.22 648.987 1097.93 651.593C1097.66 654.189 1096.18 656.85 1093.51 659.576L1089.81 663.277ZM1089.88 655.225C1091.55 653.559 1092.53 652.118 1092.82 650.902C1093.14 649.687 1092.81 648.596 1091.84 647.629C1090.9 646.69 1089.85 646.359 1088.67 646.635C1087.51 646.911 1086.14 647.804 1084.58 649.314L1079.69 654.203C1078.05 655.842 1077.05 657.283 1076.69 658.526C1076.35 659.769 1076.67 660.883 1077.66 661.868C1078.64 662.844 1079.72 663.166 1080.92 662.835C1082.12 662.503 1083.51 661.56 1085.1 660.004L1089.88 655.225ZM1100.94 691.036L1096.95 687.045L1112.34 671.66L1106.1 668.373L1109.34 665.127L1120.65 670.472L1121.08 670.9L1100.94 691.036ZM1117.19 707.278L1113.19 703.286L1128.58 687.901L1122.34 684.614L1125.58 681.369L1136.89 686.714L1137.32 687.142L1117.19 707.278ZM1140.47 730.562L1136.48 726.571L1151.86 711.186L1145.62 707.899L1148.87 704.654L1160.18 709.998L1160.61 710.426L1140.47 730.562ZM1168.87 742.329C1166.08 745.11 1163.38 746.661 1160.76 746.983C1158.13 747.306 1155.71 746.357 1153.49 744.138C1151.3 741.947 1150.35 739.549 1150.64 736.943C1150.92 734.337 1152.4 731.672 1155.07 728.947L1158.77 725.245C1161.58 722.437 1164.29 720.886 1166.9 720.591C1169.53 720.306 1171.94 721.259 1174.13 723.45C1176.32 725.641 1177.27 728.04 1176.99 730.645C1176.71 733.242 1175.24 735.903 1172.57 738.628L1168.87 742.329ZM1168.93 734.278C1170.6 732.611 1171.58 731.17 1171.88 729.955C1172.19 728.739 1171.86 727.648 1170.9 726.682C1169.96 725.743 1168.9 725.411 1167.72 725.687C1166.56 725.963 1165.2 726.857 1163.63 728.367L1158.74 733.256C1157.1 734.894 1156.1 736.335 1155.75 737.578C1155.4 738.821 1155.73 739.935 1156.71 740.92C1157.69 741.896 1158.77 742.219 1159.97 741.887C1161.17 741.556 1162.56 740.612 1164.16 739.056L1168.93 734.278ZM1192.15 765.614C1189.37 768.394 1186.67 769.946 1184.04 770.268C1181.42 770.59 1179 769.642 1176.78 767.423C1174.59 765.232 1173.63 762.833 1173.92 760.228C1174.21 757.622 1175.68 754.957 1178.35 752.231L1182.05 748.53C1184.86 745.722 1187.57 744.171 1190.19 743.876C1192.81 743.591 1195.22 744.543 1197.41 746.735C1199.6 748.926 1200.56 751.324 1200.27 753.93C1199.99 756.527 1198.52 759.187 1195.85 761.913L1192.15 765.614ZM1192.22 757.562C1193.89 755.896 1194.87 754.455 1195.16 753.24C1195.47 752.024 1195.15 750.933 1194.18 749.966C1193.24 749.027 1192.18 748.696 1191 748.972C1189.84 749.248 1188.48 750.141 1186.92 751.651L1182.03 756.54C1180.39 758.179 1179.39 759.62 1179.03 760.863C1178.69 762.106 1179.01 763.22 1180 764.205C1180.97 765.181 1182.06 765.503 1183.26 765.172C1184.45 764.841 1185.85 763.897 1187.44 762.341L1192.22 757.562Z" fill="#033162" fill-opacity="0.4" shape-rendering="crispEdges"/>
</g>
<g filter="url(#filter16_d_1_2)">
<path d="M887.133 291.225L883.142 287.234L898.527 271.849L892.285 268.562L895.53 265.316L906.841 270.661L907.269 271.089L887.133 291.225ZM922.572 310.035C919.791 312.816 917.089 314.367 914.465 314.69C911.841 315.012 909.419 314.064 907.2 311.845C905.009 309.653 904.056 307.255 904.342 304.649C904.627 302.044 906.105 299.378 908.775 296.653L912.476 292.952C915.284 290.143 917.996 288.592 920.61 288.297C923.235 288.012 925.642 288.965 927.833 291.156C930.025 293.348 930.978 295.746 930.692 298.352C930.416 300.948 928.943 303.609 926.273 306.334L922.572 310.035ZM922.641 301.984C924.307 300.317 925.288 298.876 925.582 297.661C925.895 296.446 925.569 295.355 924.602 294.388C923.663 293.449 922.604 293.117 921.425 293.394C920.265 293.67 918.903 294.563 917.337 296.073L912.448 300.962C910.81 302.601 909.811 304.042 909.451 305.285C909.111 306.528 909.433 307.642 910.418 308.627C911.394 309.603 912.481 309.925 913.678 309.594C914.874 309.262 916.269 308.318 917.862 306.762L922.641 301.984ZM938.813 326.277C936.032 329.057 933.33 330.609 930.706 330.931C928.082 331.253 925.661 330.305 923.442 328.086C921.25 325.895 920.297 323.496 920.583 320.891C920.868 318.285 922.346 315.62 925.016 312.894L928.717 309.193C931.526 306.385 934.237 304.833 936.852 304.539C939.476 304.253 941.884 305.206 944.075 307.398C946.266 309.589 947.219 311.987 946.934 314.593C946.657 317.189 945.184 319.85 942.514 322.576L938.813 326.277ZM938.882 318.225C940.549 316.559 941.529 315.118 941.824 313.902C942.137 312.687 941.81 311.596 940.843 310.629C939.904 309.69 938.845 309.359 937.667 309.635C936.507 309.911 935.144 310.804 933.579 312.314L928.69 317.203C927.051 318.842 926.052 320.283 925.693 321.526C925.352 322.769 925.674 323.883 926.66 324.868C927.636 325.844 928.722 326.166 929.919 325.835C931.116 325.503 932.511 324.56 934.104 323.004L938.882 318.225ZM949.944 354.036L945.953 350.045L961.338 334.66L955.096 331.373L958.341 328.127L969.652 333.472L970.08 333.9L949.944 354.036ZM966.186 370.278L962.194 366.286L977.58 350.901L971.337 347.614L974.583 344.369L985.894 349.714L986.322 350.142L966.186 370.278ZM989.471 393.562L985.479 389.571L1000.86 374.186L994.622 370.899L997.867 367.654L1009.18 372.998L1009.61 373.426L989.471 393.562ZM1017.87 405.329C1015.08 408.11 1012.38 409.661 1009.76 409.983C1007.13 410.306 1004.71 409.357 1002.49 407.138C1000.3 404.947 999.35 402.549 999.635 399.943C999.921 397.337 1001.4 394.672 1004.07 391.947L1007.77 388.245C1010.58 385.437 1013.29 383.886 1015.9 383.591C1018.53 383.306 1020.94 384.259 1023.13 386.45C1025.32 388.641 1026.27 391.04 1025.99 393.645C1025.71 396.242 1024.24 398.903 1021.57 401.628L1017.87 405.329ZM1017.93 397.278C1019.6 395.611 1020.58 394.17 1020.88 392.955C1021.19 391.739 1020.86 390.648 1019.9 389.682C1018.96 388.743 1017.9 388.411 1016.72 388.687C1015.56 388.963 1014.2 389.857 1012.63 391.367L1007.74 396.256C1006.1 397.894 1005.1 399.335 1004.75 400.578C1004.4 401.821 1004.73 402.935 1005.71 403.92C1006.69 404.896 1007.77 405.219 1008.97 404.887C1010.17 404.556 1011.56 403.612 1013.16 402.056L1017.93 397.278ZM1041.15 428.614C1038.37 431.394 1035.67 432.946 1033.04 433.268C1030.42 433.59 1028 432.642 1025.78 430.423C1023.59 428.232 1022.63 425.833 1022.92 423.228C1023.21 420.622 1024.68 417.957 1027.35 415.231L1031.05 411.53C1033.86 408.722 1036.57 407.171 1039.19 406.876C1041.81 406.591 1044.22 407.543 1046.41 409.735C1048.6 411.926 1049.56 414.324 1049.27 416.93C1048.99 419.527 1047.52 422.187 1044.85 424.913L1041.15 428.614ZM1041.22 420.562C1042.89 418.896 1043.87 417.455 1044.16 416.24C1044.47 415.024 1044.15 413.933 1043.18 412.966C1042.24 412.027 1041.18 411.696 1040 411.972C1038.84 412.248 1037.48 413.141 1035.92 414.651L1031.03 419.54C1029.39 421.179 1028.39 422.62 1028.03 423.863C1027.69 425.106 1028.01 426.22 1029 427.205C1029.97 428.181 1031.06 428.503 1032.26 428.172C1033.45 427.841 1034.85 426.897 1036.44 425.341L1041.22 420.562Z" fill="#033162" fill-opacity="0.7" shape-rendering="crispEdges"/>
</g>
<g filter="url(#filter17_d_1_2)">
<path d="M661.133 421.225L657.142 417.234L672.527 401.849L666.285 398.562L669.53 395.316L680.841 400.661L681.269 401.089L661.133 421.225ZM696.572 440.035C693.791 442.816 691.089 444.367 688.465 444.69C685.841 445.012 683.419 444.064 681.2 441.845C679.009 439.653 678.056 437.255 678.342 434.649C678.627 432.044 680.105 429.378 682.775 426.653L686.476 422.952C689.284 420.143 691.996 418.592 694.61 418.297C697.235 418.012 699.642 418.965 701.833 421.156C704.025 423.348 704.978 425.746 704.692 428.352C704.416 430.948 702.943 433.609 700.273 436.334L696.572 440.035ZM696.641 431.984C698.307 430.317 699.288 428.876 699.582 427.661C699.895 426.446 699.569 425.355 698.602 424.388C697.663 423.449 696.604 423.117 695.425 423.394C694.265 423.67 692.903 424.563 691.337 426.073L686.448 430.962C684.81 432.601 683.811 434.042 683.451 435.285C683.111 436.528 683.433 437.642 684.418 438.627C685.394 439.603 686.481 439.925 687.678 439.594C688.874 439.262 690.269 438.318 691.862 436.762L696.641 431.984ZM712.813 456.277C710.032 459.057 707.33 460.609 704.706 460.931C702.082 461.253 699.661 460.305 697.442 458.086C695.25 455.895 694.297 453.496 694.583 450.891C694.868 448.285 696.346 445.62 699.016 442.894L702.717 439.193C705.526 436.385 708.237 434.833 710.852 434.539C713.476 434.253 715.884 435.206 718.075 437.398C720.266 439.589 721.219 441.987 720.934 444.593C720.657 447.189 719.184 449.85 716.514 452.576L712.813 456.277ZM712.882 448.225C714.549 446.559 715.529 445.118 715.824 443.902C716.137 442.687 715.81 441.596 714.843 440.629C713.904 439.69 712.845 439.359 711.667 439.635C710.507 439.911 709.144 440.804 707.579 442.314L702.69 447.203C701.051 448.842 700.052 450.283 699.693 451.526C699.352 452.769 699.674 453.883 700.66 454.868C701.636 455.844 702.722 456.166 703.919 455.835C705.116 455.503 706.511 454.56 708.104 453.004L712.882 448.225ZM723.944 484.036L719.953 480.045L735.338 464.66L729.096 461.373L732.341 458.127L743.652 463.472L744.08 463.9L723.944 484.036ZM740.186 500.278L736.194 496.286L751.58 480.901L745.337 477.614L748.583 474.369L759.894 479.714L760.322 480.142L740.186 500.278ZM763.471 523.562L759.479 519.571L774.864 504.186L768.622 500.899L771.867 497.654L783.178 502.998L783.607 503.426L763.471 523.562ZM791.865 535.329C789.085 538.11 786.382 539.661 783.758 539.983C781.134 540.306 778.713 539.357 776.494 537.138C774.303 534.947 773.35 532.549 773.635 529.943C773.921 527.337 775.398 524.672 778.068 521.947L781.77 518.245C784.578 515.437 787.289 513.886 789.904 513.591C792.528 513.306 794.936 514.259 797.127 516.45C799.318 518.641 800.271 521.04 799.986 523.645C799.71 526.242 798.237 528.903 795.567 531.628L791.865 535.329ZM791.934 527.278C793.601 525.611 794.581 524.17 794.876 522.955C795.189 521.739 794.862 520.648 793.895 519.682C792.956 518.743 791.898 518.411 790.719 518.687C789.559 518.963 788.196 519.857 786.631 521.367L781.742 526.256C780.103 527.894 779.104 529.335 778.745 530.578C778.404 531.821 778.727 532.935 779.712 533.92C780.688 534.896 781.774 535.219 782.971 534.887C784.168 534.556 785.563 533.612 787.156 532.056L791.934 527.278ZM815.15 558.614C812.37 561.394 809.667 562.946 807.043 563.268C804.419 563.59 801.998 562.642 799.779 560.423C797.588 558.232 796.635 555.833 796.92 553.228C797.205 550.622 798.683 547.957 801.353 545.231L805.054 541.53C807.863 538.722 810.574 537.171 813.189 536.876C815.813 536.591 818.221 537.543 820.412 539.735C822.603 541.926 823.556 544.324 823.271 546.93C822.995 549.527 821.521 552.187 818.851 554.913L815.15 558.614ZM815.219 550.562C816.886 548.896 817.866 547.455 818.161 546.24C818.474 545.024 818.147 543.933 817.18 542.966C816.241 542.027 815.182 541.696 814.004 541.972C812.844 542.248 811.481 543.141 809.916 544.651L805.027 549.54C803.388 551.179 802.389 552.62 802.03 553.863C801.689 555.106 802.012 556.22 802.997 557.205C803.973 558.181 805.059 558.503 806.256 558.172C807.453 557.841 808.848 556.897 810.441 555.341L815.219 550.562Z" fill="#033162" fill-opacity="0.4" shape-rendering="crispEdges"/>
</g>
<g filter="url(#filter18_d_1_2)">
<path d="M375.133 -47.7747L371.142 -51.766L386.527 -67.1511L380.285 -70.438L383.53 -73.6835L394.841 -68.3388L395.269 -67.9107L375.133 -47.7747ZM410.572 -28.9646C407.791 -26.184 405.089 -24.6326 402.465 -24.3104C399.841 -23.9881 397.419 -24.9364 395.2 -27.1554C393.009 -29.3466 392.056 -31.7451 392.342 -34.3507C392.627 -36.9563 394.105 -39.6218 396.775 -42.3471L400.476 -46.0484C403.284 -48.8565 405.996 -50.4079 408.61 -50.7026C411.235 -50.988 413.642 -50.035 415.833 -47.8437C418.025 -45.6525 418.978 -43.254 418.692 -40.6484C418.416 -38.052 416.943 -35.3911 414.273 -32.6658L410.572 -28.9646ZM410.641 -37.0162C412.307 -38.6827 413.288 -40.1236 413.582 -41.3389C413.895 -42.5543 413.569 -43.6453 412.602 -44.6121C411.663 -45.5512 410.604 -45.8826 409.425 -45.6064C408.265 -45.3302 406.903 -44.4371 405.337 -42.9271L400.448 -38.0382C398.81 -36.3993 397.811 -34.9584 397.451 -33.7154C397.111 -32.4725 397.433 -31.3584 398.418 -30.3732C399.394 -29.3973 400.481 -29.075 401.678 -29.4065C402.874 -29.7379 404.269 -30.6817 405.862 -32.2377L410.641 -37.0162ZM426.813 -12.7232C424.032 -9.94264 421.33 -8.39124 418.706 -8.06899C416.082 -7.74674 413.661 -8.69508 411.442 -10.914C409.25 -13.1053 408.297 -15.5037 408.583 -18.1094C408.868 -20.715 410.346 -23.3804 413.016 -26.1057L416.717 -29.807C419.526 -32.6152 422.237 -34.1666 424.852 -34.4612C427.476 -34.7466 429.884 -33.7937 432.075 -31.6024C434.266 -29.4111 435.219 -27.0126 434.934 -24.407C434.657 -21.8106 433.184 -19.1498 430.514 -16.4245L426.813 -12.7232ZM426.882 -20.7748C428.549 -22.4413 429.529 -23.8822 429.824 -25.0976C430.137 -26.3129 429.81 -27.4039 428.843 -28.3707C427.904 -29.3098 426.845 -29.6413 425.667 -29.3651C424.507 -29.0888 423.144 -28.1958 421.579 -26.6858L416.69 -21.7968C415.051 -20.1579 414.052 -18.717 413.693 -17.4741C413.352 -16.2311 413.674 -15.117 414.66 -14.1319C415.636 -13.1559 416.722 -12.8337 417.919 -13.1651C419.116 -13.4966 420.511 -14.4403 422.104 -15.9963L426.882 -20.7748ZM437.944 15.0363L433.953 11.045L449.338 -4.34011L443.096 -7.62705L446.341 -10.8726L457.652 -5.52783L458.08 -5.0997L437.944 15.0363ZM454.186 31.2776L450.194 27.2863L465.58 11.9012L459.337 8.61431L462.583 5.3688L473.894 10.7135L474.322 11.1417L454.186 31.2776ZM477.471 54.5624L473.479 50.5712L488.864 35.1861L482.622 31.8991L485.867 28.6536L497.178 33.9983L497.607 34.4265L477.471 54.5624ZM505.865 66.3291C503.085 69.1097 500.382 70.6611 497.758 70.9833C495.134 71.3056 492.713 70.3572 490.494 68.1383C488.303 65.947 487.35 63.5486 487.635 60.943C487.921 58.3374 489.398 55.6719 492.068 52.9466L495.77 49.2453C498.578 46.4372 501.289 44.8858 503.904 44.5911C506.528 44.3057 508.936 45.2586 511.127 47.4499C513.318 49.6412 514.271 52.0397 513.986 54.6453C513.71 57.2417 512.237 59.9026 509.567 62.6279L505.865 66.3291ZM505.934 58.2775C507.601 56.611 508.581 55.1701 508.876 53.9548C509.189 52.7394 508.862 51.6484 507.895 50.6816C506.956 49.7425 505.898 49.4111 504.719 49.6873C503.559 49.9635 502.196 50.8566 500.631 52.3665L495.742 57.2555C494.103 58.8944 493.104 60.3353 492.745 61.5783C492.404 62.8212 492.727 63.9353 493.712 64.9204C494.688 65.8964 495.774 66.2186 496.971 65.8872C498.168 65.5557 499.563 64.612 501.156 63.056L505.934 58.2775ZM529.15 89.6139C526.37 92.3945 523.667 93.9459 521.043 94.2681C518.419 94.5904 515.998 93.6421 513.779 91.4231C511.588 89.2318 510.635 86.8334 510.92 84.2278C511.205 81.6222 512.683 78.9567 515.353 76.2314L519.054 72.5301C521.863 69.722 524.574 68.1706 527.189 67.8759C529.813 67.5905 532.221 68.5434 534.412 70.7347C536.603 72.926 537.556 75.3245 537.271 77.9301C536.995 80.5265 535.521 83.1874 532.851 85.9127L529.15 89.6139ZM529.219 81.5623C530.886 79.8958 531.866 78.4549 532.161 77.2396C532.474 76.0242 532.147 74.9332 531.18 73.9664C530.241 73.0273 529.182 72.6959 528.004 72.9721C526.844 73.2483 525.481 74.1414 523.916 75.6513L519.027 80.5403C517.388 82.1792 516.389 83.6201 516.03 84.8631C515.689 86.106 516.012 87.2201 516.997 88.2053C517.973 89.1812 519.059 89.5035 520.256 89.172C521.453 88.8405 522.848 87.8968 524.441 86.3408L529.219 81.5623Z" fill="#033162" fill-opacity="0.5" shape-rendering="crispEdges"/>
</g>
</g>
<defs>
<filter id="filter0_d_1_2" x="932.003" y="68.865" width="101.292" height="101.292" filterUnits="userSpaceOnUse" color-interpolation-filters="sRGB">
<feFlood flood-opacity="0" result="BackgroundImageFix"/>
<feColorMatrix in="SourceAlpha" type="matrix" values="0 0 0 0 0 0 0 0 0 0 0 0 0 0 0 0 0 0 127 0" result="hardAlpha"/>
<feOffset/>
<feGaussianBlur stdDeviation="10"/>
<feComposite in2="hardAlpha" operator="out"/>
<feColorMatrix type="matrix" values="0 0 0 0 0.0655208 0 0 0 0 0.257742 0 0 0 0 0.4625 0 0 0 0.55 0"/>
<feBlend mode="normal" in2="BackgroundImageFix" result="effect1_dropShadow_1_2"/>
<feBlend mode="normal" in="SourceGraphic" in2="effect1_dropShadow_1_2" result="shape"/>
</filter>
<filter id="filter1_d_1_2" x="616.832" y="-40.135" width="101.292" height="101.292" filterUnits="userSpaceOnUse" color-interpolation-filters="sRGB">
<feFlood flood-opacity="0" result="BackgroundImageFix"/>
<feColorMatrix in="SourceAlpha" type="matrix" values="0 0 0 0 0 0 0 0 0 0 0 0 0 0 0 0 0 0 127 0" result="hardAlpha"/>
<feOffset/>
<feGaussianBlur stdDeviation="10"/>
<feComposite in2="hardAlpha" operator="out"/>
<feColorMatrix type="matrix" values="0 0 0 0 0.0655208 0 0 0 0 0.257742 0 0 0 0 0.4625 0 0 0 0.55 0"/>
<feBlend mode="normal" in2="BackgroundImageFix" result="effect1_dropShadow_1_2"/>
<feBlend mode="normal" in="SourceGraphic" in2="effect1_dropShadow_1_2" result="shape"/>
</filter>
<filter id="filter2_d_1_2" x="783.832" y="-32.135" width="101.292" height="101.292" filterUnits="userSpaceOnUse" color-interpolation-filters="sRGB">
<feFlood flood-opacity="0" result="BackgroundImageFix"/>
<feColorMatrix in="SourceAlpha" type="matrix" values="0 0 0 0 0 0 0 0 0 0 0 0 0 0 0 0 0 0 127 0" result="hardAlpha"/>
<feOffset/>
<feGaussianBlur stdDeviation="10"/>
<feComposite in2="hardAlpha" operator="out"/>
<feColorMatrix type="matrix" values="0 0 0 0 0.0655208 0 0 0 0 0.257742 0 0 0 0 0.4625 0 0 0 0.55 0"/>
<feBlend mode="normal" in2="BackgroundImageFix" result="effect1_dropShadow_1_2"/>
<feBlend mode="normal" in="SourceGraphic" in2="effect1_dropShadow_1_2" result="shape"/>
</filter>
<filter id="filter3_d_1_2" x="954.832" y="573.865" width="101.292" height="101.292" filterUnits="userSpaceOnUse" color-interpolation-filters="sRGB">
<feFlood flood-opacity="0" result="BackgroundImageFix"/>
<feColorMatrix in="SourceAlpha" type="matrix" values="0 0 0 0 0 0 0 0 0 0 0 0 0 0 0 0 0 0 127 0" result="hardAlpha"/>
<feOffset/>
<feGaussianBlur stdDeviation="10"/>
<feComposite in2="hardAlpha" operator="out"/>
<feColorMatrix type="matrix" values="0 0 0 0 0.0655208 0 0 0 0 0.257742 0 0 0 0 0.4625 0 0 0 0.55 0"/>
<feBlend mode="normal" in2="BackgroundImageFix" result="effect1_dropShadow_1_2"/>
<feBlend mode="normal" in="SourceGraphic" in2="effect1_dropShadow_1_2" result="shape"/>
</filter>
<filter id="filter4_d_1_2" x="806.832" y="405.865" width="101.292" height="101.292" filterUnits="userSpaceOnUse" color-interpolation-filters="sRGB">
<feFlood flood-opacity="0" result="BackgroundImageFix"/>
<feColorMatrix in="SourceAlpha" type="matrix" values="0 0 0 0 0 0 0 0 0 0 0 0 0 0 0 0 0 0 127 0" result="hardAlpha"/>
<feOffset/>
<feGaussianBlur stdDeviation="10"/>
<feComposite in2="hardAlpha" operator="out"/>
<feColorMatrix type="matrix" values="0 0 0 0 0.0655208 0 0 0 0 0.257742 0 0 0 0 0.4625 0 0 0 0.55 0"/>
<feBlend mode="normal" in2="BackgroundImageFix" result="effect1_dropShadow_1_2"/>
<feBlend mode="normal" in="SourceGraphic" in2="effect1_dropShadow_1_2" result="shape"/>
</filter>
<filter id="filter5_d_1_2" x="656.832" y="484.865" width="101.292" height="101.292" filterUnits="userSpaceOnUse" color-interpolation-filters="sRGB">
<feFlood flood-opacity="0" result="BackgroundImageFix"/>
<feColorMatrix in="SourceAlpha" type="matrix" values="0 0 0 0 0 0 0 0 0 0 0 0 0 0 0 0 0 0 127 0" result="hardAlpha"/>
<feOffset/>
<feGaussianBlur stdDeviation="10"/>
<feComposite in2="hardAlpha" operator="out"/>
<feColorMatrix type="matrix" values="0 0 0 0 0.0655208 0 0 0 0 0.257742 0 0 0 0 0.4625 0 0 0 0.55 0"/>
<feBlend mode="normal" in2="BackgroundImageFix" result="effect1_dropShadow_1_2"/>
<feBlend mode="normal" in="SourceGraphic" in2="effect1_dropShadow_1_2" result="shape"/>
</filter>
<filter id="filter6_d_1_2" x="605.832" y="181.865" width="101.292" height="101.292" filterUnits="userSpaceOnUse" color-interpolation-filters="sRGB">
<feFlood flood-opacity="0" result="BackgroundImageFix"/>
<feColorMatrix in="SourceAlpha" type="matrix" values="0 0 0 0 0 0 0 0 0 0 0 0 0 0 0 0 0 0 127 0" result="hardAlpha"/>
<feOffset/>
<feGaussianBlur stdDeviation="10"/>
<feComposite in2="hardAlpha" operator="out"/>
<feColorMatrix type="matrix" values="0 0 0 0 0.0655208 0 0 0 0 0.257742 0 0 0 0 0.4625 0 0 0 0.55 0"/>
<feBlend mode="normal" in2="BackgroundImageFix" result="effect1_dropShadow_1_2"/>
<feBlend mode="normal" in="SourceGraphic" in2="effect1_dropShadow_1_2" result="shape"/>
</filter>
<filter id="filter7_d_1_2" x="965.832" y="298.865" width="101.292" height="101.292" filterUnits="userSpaceOnUse" color-interpolation-filters="sRGB">
<feFlood flood-opacity="0" result="BackgroundImageFix"/>
<feColorMatrix in="SourceAlpha" type="matrix" values="0 0 0 0 0 0 0 0 0 0 0 0 0 0 0 0 0 0 127 0" result="hardAlpha"/>
<feOffset/>
<feGaussianBlur stdDeviation="10"/>
<feComposite in2="hardAlpha" operator="out"/>
<feColorMatrix type="matrix" values="0 0 0 0 0.0655208 0 0 0 0 0.257742 0 0 0 0 0.4625 0 0 0 0.55 0"/>
<feBlend mode="normal" in2="BackgroundImageFix" result="effect1_dropShadow_1_2"/>
<feBlend mode="normal" in="SourceGraphic" in2="effect1_dropShadow_1_2" result="shape"/>
</filter>
<filter id="filter8_d_1_2" x="794.832" y="133.865" width="101.292" height="101.292" filterUnits="userSpaceOnUse" color-interpolation-filters="sRGB">
<feFlood flood-opacity="0" result="BackgroundImageFix"/>
<feColorMatrix in="SourceAlpha" type="matrix" values="0 0 0 0 0 0 0 0 0 0 0 0 0 0 0 0 0 0 127 0" result="hardAlpha"/>
<feOffset/>
<feGaussianBlur stdDeviation="10"/>
<feComposite in2="hardAlpha" operator="out"/>
<feColorMatrix type="matrix" values="0 0 0 0 0.0655208 0 0 0 0 0.257742 0 0 0 0 0.4625 0 0 0 0.55 0"/>
<feBlend mode="normal" in2="BackgroundImageFix" result="effect1_dropShadow_1_2"/>
<feBlend mode="normal" in="SourceGraphic" in2="effect1_dropShadow_1_2" result="shape"/>
</filter>
<filter id="filter9_d_1_2" x="1060.83" y="452.865" width="101.292" height="101.292" filterUnits="userSpaceOnUse" color-interpolation-filters="sRGB">
<feFlood flood-opacity="0" result="BackgroundImageFix"/>
<feColorMatrix in="SourceAlpha" type="matrix" values="0 0 0 0 0 0 0 0 0 0 0 0 0 0 0 0 0 0 127 0" result="hardAlpha"/>
<feOffset/>
<feGaussianBlur stdDeviation="10"/>
<feComposite in2="hardAlpha" operator="out"/>
<feColorMatrix type="matrix" values="0 0 0 0 0.0655208 0 0 0 0 0.257742 0 0 0 0 0.4625 0 0 0 0.55 0"/>
<feBlend mode="normal" in2="BackgroundImageFix" result="effect1_dropShadow_1_2"/>
<feBlend mode="normal" in="SourceGraphic" in2="effect1_dropShadow_1_2" result="shape"/>
</filter>
<filter id="filter10_d_1_2" x="1127.83" y="248.865" width="101.292" height="101.292" filterUnits="userSpaceOnUse" color-interpolation-filters="sRGB">
<feFlood flood-opacity="0" result="BackgroundImageFix"/>
<feColorMatrix in="SourceAlpha" type="matrix" values="0 0 0 0 0 0 0 0 0 0 0 0 0 0 0 0 0 0 127 0" result="hardAlpha"/>
<feOffset/>
<feGaussianBlur stdDeviation="10"/>
<feComposite in2="hardAlpha" operator="out"/>
<feColorMatrix type="matrix" values="0 0 0 0 0.0655208 0 0 0 0 0.257742 0 0 0 0 0.4625 0 0 0 0.55 0"/>
<feBlend mode="normal" in2="BackgroundImageFix" result="effect1_dropShadow_1_2"/>
<feBlend mode="normal" in="SourceGraphic" in2="effect1_dropShadow_1_2" result="shape"/>
</filter>
<filter id="filter11_d_1_2" x="931.832" y="136.865" width="101.292" height="101.292" filterUnits="userSpaceOnUse" color-interpolation-filters="sRGB">
<feFlood flood-opacity="0" result="BackgroundImageFix"/>
<feColorMatrix in="SourceAlpha" type="matrix" values="0 0 0 0 0 0 0 0 0 0 0 0 0 0 0 0 0 0 127 0" result="hardAlpha"/>
<feOffset/>
<feGaussianBlur stdDeviation="10"/>
<feComposite in2="hardAlpha" operator="out"/>
<feColorMatrix type="matrix" values="0 0 0 0 0.0655208 0 0 0 0 0.257742 0 0 0 0 0.4625 0 0 0 0.55 0"/>
<feBlend mode="normal" in2="BackgroundImageFix" result="effect1_dropShadow_1_2"/>
<feBlend mode="normal" in="SourceGraphic" in2="effect1_dropShadow_1_2" result="shape"/>
</filter>
<filter id="filter12_d_1_2" x="1127.66" y="316.865" width="101.292" height="101.292" filterUnits="userSpaceOnUse" color-interpolation-filters="sRGB">
<feFlood flood-opacity="0" result="BackgroundImageFix"/>
<feColorMatrix in="SourceAlpha" type="matrix" values="0 0 0 0 0 0 0 0 0 0 0 0 0 0 0 0 0 0 127 0" result="hardAlpha"/>
<feOffset/>
<feGaussianBlur stdDeviation="10"/>
<feComposite in2="hardAlpha" operator="out"/>
<feColorMatrix type="matrix" values="0 0 0 0 0.0655208 0 0 0 0 0.257742 0 0 0 0 0.4625 0 0 0 0.55 0"/>
<feBlend mode="normal" in2="BackgroundImageFix" result="effect1_dropShadow_1_2"/>
<feBlend mode="normal" in="SourceGraphic" in2="effect1_dropShadow_1_2" result="shape"/>
</filter>
<filter id="filter13_d_1_2" x="460.73" y="144.355" width="92.5358" height="92.5358" filterUnits="userSpaceOnUse" color-interpolation-filters="sRGB">
<feFlood flood-opacity="0" result="BackgroundImageFix"/>
<feColorMatrix in="SourceAlpha" type="matrix" values="0 0 0 0 0 0 0 0 0 0 0 0 0 0 0 0 0 0 127 0" result="hardAlpha"/>
<feOffset/>
<feGaussianBlur stdDeviation="10"/>
<feComposite in2="hardAlpha" operator="out"/>
<feColorMatrix type="matrix" values="0 0 0 0 0.0655208 0 0 0 0 0.257742 0 0 0 0 0.4625 0 0 0 0.55 0"/>
<feBlend mode="normal" in2="BackgroundImageFix" result="effect1_dropShadow_1_2"/>
<feBlend mode="normal" in="SourceGraphic" in2="effect1_dropShadow_1_2" result="shape"/>
</filter>
<filter id="filter14_d_1_2" x="244.73" y="9.35471" width="92.5358" height="92.5358" filterUnits="userSpaceOnUse" color-interpolation-filters="sRGB">
<feFlood flood-opacity="0" result="BackgroundImageFix"/>
<feColorMatrix in="SourceAlpha" type="matrix" values="0 0 0 0 0 0 0 0 0 0 0 0 0 0 0 0 0 0 127 0" result="hardAlpha"/>
<feOffset/>
<feGaussianBlur stdDeviation="10"/>
<feComposite in2="hardAlpha" operator="out"/>
<feColorMatrix type="matrix" values="0 0 0 0 0.0655208 0 0 0 0 0.257742 0 0 0 0 0.4625 0 0 0 0.55 0"/>
<feBlend mode="normal" in2="BackgroundImageFix" result="effect1_dropShadow_1_2"/>
<feBlend mode="normal" in="SourceGraphic" in2="effect1_dropShadow_1_2" result="shape"/>
</filter>
<filter id="filter15_d_1_2" x="1009.1" y="579.085" width="215.119" height="215.119" filterUnits="userSpaceOnUse" color-interpolation-filters="sRGB">
<feFlood flood-opacity="0" result="BackgroundImageFix"/>
<feColorMatrix in="SourceAlpha" type="matrix" values="0 0 0 0 0 0 0 0 0 0 0 0 0 0 0 0 0 0 127 0" result="hardAlpha"/>
<feOffset/>
<feGaussianBlur stdDeviation="10"/>
<feComposite in2="hardAlpha" operator="out"/>
<feColorMatrix type="matrix" values="0 0 0 0 0.0655208 0 0 0 0 0.257742 0 0 0 0 0.4625 0 0 0 0.55 0"/>
<feBlend mode="normal" in2="BackgroundImageFix" result="effect1_dropShadow_1_2"/>
<feBlend mode="normal" in="SourceGraphic" in2="effect1_dropShadow_1_2" result="shape"/>
</filter>
<filter id="filter16_d_1_2" x="858.101" y="242.085" width="215.119" height="215.119" filterUnits="userSpaceOnUse" color-interpolation-filters="sRGB">
<feFlood flood-opacity="0" result="BackgroundImageFix"/>
<feColorMatrix in="SourceAlpha" type="matrix" values="0 0 0 0 0 0 0 0 0 0 0 0 0 0 0 0 0 0 127 0" result="hardAlpha"/>
<feOffset/>
<feGaussianBlur stdDeviation="10"/>
<feComposite in2="hardAlpha" operator="out"/>
<feColorMatrix type="matrix" values="0 0 0 0 0.0655208 0 0 0 0 0.257742 0 0 0 0 0.4625 0 0 0 0.55 0"/>
<feBlend mode="normal" in2="BackgroundImageFix" result="effect1_dropShadow_1_2"/>
<feBlend mode="normal" in="SourceGraphic" in2="effect1_dropShadow_1_2" result="shape"/>
</filter>
<filter id="filter17_d_1_2" x="632.101" y="372.085" width="215.119" height="215.119" filterUnits="userSpaceOnUse" color-interpolation-filters="sRGB">
<feFlood flood-opacity="0" result="BackgroundImageFix"/>
<feColorMatrix in="SourceAlpha" type="matrix" values="0 0 0 0 0 0 0 0 0 0 0 0 0 0 0 0 0 0 127 0" result="hardAlpha"/>
<feOffset/>
<feGaussianBlur stdDeviation="10"/>
<feComposite in2="hardAlpha" operator="out"/>
<feColorMatrix type="matrix" values="0 0 0 0 0.0655208 0 0 0 0 0.257742 0 0 0 0 0.4625 0 0 0 0.55 0"/>
<feBlend mode="normal" in2="BackgroundImageFix" result="effect1_dropShadow_1_2"/>
<feBlend mode="normal" in="SourceGraphic" in2="effect1_dropShadow_1_2" result="shape"/>
</filter>
<filter id="filter18_d_1_2" x="346.101" y="-96.9152" width="215.119" height="215.119" filterUnits="userSpaceOnUse" color-interpolation-filters="sRGB">
<feFlood flood-opacity="0" result="BackgroundImageFix"/>
<feColorMatrix in="SourceAlpha" type="matrix" values="0 0 0 0 0 0 0 0 0 0 0 0 0 0 0 0 0 0 127 0" result="hardAlpha"/>
<feOffset/>
<feGaussianBlur stdDeviation="10"/>
<feComposite in2="hardAlpha" operator="out"/>
<feColorMatrix type="matrix" values="0 0 0 0 0.0655208 0 0 0 0 0.257742 0 0 0 0 0.4625 0 0 0 0.55 0"/>
<feBlend mode="normal" in2="BackgroundImageFix" result="effect1_dropShadow_1_2"/>
<feBlend mode="normal" in="SourceGraphic" in2="effect1_dropShadow_1_2" result="shape"/>
</filter>
<radialGradient id="paint0_radial_1_2" cx="0" cy="0" r="1" gradientUnits="userSpaceOnUse" gradientTransform="translate(640 360) rotate(90) scale(360 640)">
<stop stop-color="#2E9BFF" stop-opacity="0.43"/>
<stop offset="1" stop-color="#0085FF" stop-opacity="0.04"/>
</radialGradient>
<clipPath id="clip0_1_2">
<rect width="1280" height="720" fill="white"/>
</clipPath>
</defs>
</svg>
